<?xml version="1.0" encoding="UTF-8" standalone="no"?>
<!-- Created with Inkscape (http://www.inkscape.org/) -->

<svg
   version="1.1"
   id="svg1"
   width="1527.72"
   height="1015.0933"
   viewBox="0 0 1527.72 1015.0933"
   xmlns="http://www.w3.org/2000/svg"
   xmlns:svg="http://www.w3.org/2000/svg">
  <defs
     id="defs1" />
  <g
     id="g1">
    <g
       id="group-R5">
      <path
         id="path2"
         d="m 1401.77,1863.08 c -97.62,-76.91 -230.69,-115.34 -399.18,-115.34 H 634.402 v 904.92 h 368.188 c 168.49,0 301.56,-37.71 399.18,-113.07 97.62,-75.42 146.38,-188.54 146.38,-339.37 0,-147.93 -48.76,-260.28 -146.38,-337.14 z m 228.46,1206.57 c -173.04,79.86 -382.28,119.79 -627.64,119.79 H 634.402 385.953 0 V 84.3008 H 634.402 V 1211.01 h 368.188 c 245.36,0 454.6,39.93 627.64,119.78 173.04,79.86 305.32,194.43 397.06,343.76 91.54,149.33 137.5,324.54 137.5,525.67 0,204.04 -45.96,379.97 -137.5,527.85 -91.74,147.84 -224.02,261.73 -397.06,341.58"
         style="fill:#ed1f42;fill-opacity:1;fill-rule:nonzero;stroke:none"
         transform="matrix(0.13333333,0,0,-0.13333333,0,1015.0933)" />
      <path
         id="path3"
         d="m 2745.79,84.3008 h 643.29 V 3189.44 H 2745.79 V 84.3008"
         style="fill:#ed1f42;fill-opacity:1;fill-rule:nonzero;stroke:none"
         transform="matrix(0.13333333,0,0,-0.13333333,0,1015.0933)" />
      <path
         id="path4"
         d="m 4781.87,2648.26 h 368.18 c 112.3,0 209.15,-18.54 290.55,-55.47 81.3,-37.03 144.17,-90.24 188.49,-159.71 44.32,-69.48 66.53,-153 66.53,-250.62 0,-97.58 -22.21,-181.15 -66.53,-250.63 -44.32,-69.52 -107.19,-122.72 -188.49,-159.66 -81.4,-37.03 -178.25,-55.47 -290.55,-55.47 H 4781.87 Z M 5815.35,1335.24 c 171.49,82.75 303.1,198.81 394.84,348.19 91.63,149.28 137.5,321.6 137.5,516.79 0,198.1 -45.87,371.09 -137.5,519.02 -91.74,147.83 -223.35,263.17 -394.84,345.97 -171.49,82.75 -379.96,124.23 -625.42,124.23 H 4781.87 4533.42 4147.46 V 84.3008 h 634.41 V 1211.01 h 276.7 L 5784.36,84.3008 h 749.69 L 5693.31,1286.29 c 42.35,14.45 83.44,30.3 122.04,48.95"
         style="fill:#ed1f42;fill-opacity:1;fill-rule:nonzero;stroke:none"
         transform="matrix(0.13333333,0,0,-0.13333333,0,1015.0933)" />
      <path
         id="path5"
         d="m 7620.84,3189.44 h -634.4 V 84.3008 H 8858.45 V 638.789 H 7620.84 V 3189.44"
         style="fill:#ed1f42;fill-opacity:1;fill-rule:nonzero;stroke:none"
         transform="matrix(0.13333333,0,0,-0.13333333,0,1015.0933)" />
      <path
         id="path6"
         d="m 11393.6,1306.36 c -43,102.07 -102.1,190.76 -177.5,266.17 -75.4,75.42 -159.7,139.73 -252.8,192.98 -93.2,53.2 -190.2,97.57 -290.6,133.06 -156.8,53.25 -286.9,105.68 -390.4,157.49 -103.5,51.71 -180.3,106.46 -230.6,164.1 -50.4,57.7 -75.46,124.9 -75.46,201.86 0,76.86 31.06,144.17 93.16,201.81 62.1,57.7 155.3,86.52 279.5,86.52 94.6,0 178.9,-18.49 252.9,-55.47 73.8,-36.98 139.7,-85.8 197.3,-146.39 57.7,-60.64 107.2,-127.94 148.6,-201.81 l 496.8,275.01 c -53.2,109.4 -127.9,215.13 -224,317.2 -96.1,102.01 -215.9,186.31 -359.3,252.84 -143.5,66.53 -314.2,99.8 -512.3,99.8 -192.3,0 -366,-34.81 -521.27,-104.24 -155.27,-69.53 -278,-168.6 -368.19,-297.21 -90.18,-128.62 -135.28,-281.67 -135.28,-459.1 0,-147.93 28.1,-274.33 84.3,-379.29 56.1,-105.01 127.07,-193.7 212.92,-266.17 85.74,-72.47 176.7,-131.61 272.78,-177.43 96.08,-45.87 181.14,-82.08 255.14,-108.68 138.9,-53.2 256.4,-102.79 352.6,-148.6 96.1,-45.87 168.6,-98.35 217.4,-157.45 48.7,-59.19 73.2,-137.55 73.2,-235.118 0,-112.402 -39.9,-201.14 -119.8,-266.172 -79.8,-65.078 -183.4,-97.57 -310.5,-97.57 -109.4,0 -211.5,23.648 -306.1,70.969 -94.64,47.261 -181.16,113.793 -259.47,199.64 -78.4,85.692 -150.15,186.311 -215.13,301.601 L 9129.02,807.34 C 9196.99,662.402 9291.62,527.891 9412.9,403.672 9534.09,279.492 9676.8,181.152 9840.96,108.68 10005.1,36.2617 10181.7,0 10371.1,0 c 141.9,0 277.2,21.4805 405.8,64.3516 128.6,42.8284 244.7,104.9184 348.2,186.2694 103.5,81.301 184.8,181.149 244,299.43 59.1,118.238 88.8,252.851 88.8,403.679 0,133.06 -21.6,250.62 -64.3,352.63"
         style="fill:#ed1f42;fill-opacity:1;fill-rule:nonzero;stroke:none"
         transform="matrix(0.13333333,0,0,-0.13333333,0,1015.0933)" />
      <path
         id="path7"
         d="m 1699.65,5627.81 c -63.3,191.92 -93.18,397.51 -84.83,609.45 -133.44,-2.29 -261.3,3.54 -381.32,17.73 -7.35,-43.31 -13.42,-86.86 -17.22,-131.16 -14.68,-173.96 -1.26,-343.6 35.95,-504.89 131.67,-0.76 288.66,1.77 447.42,8.87"
         style="fill:#ed1f42;fill-opacity:1;fill-rule:nonzero;stroke:none"
         transform="matrix(0.13333333,0,0,-0.13333333,0,1015.0933)" />
      <path
         id="path8"
         d="m 2085.99,4988.8 c -151.92,157.24 -271.44,341.57 -351.96,543.87 -167.61,0 -328.4,6.09 -464.62,17.48 57.47,-206.62 154.96,-397.53 284.09,-563.63 129.89,-5.83 327.14,-5.57 532.49,2.28"
         style="fill:#ed1f42;fill-opacity:1;fill-rule:nonzero;stroke:none"
         transform="matrix(0.13333333,0,0,-0.13333333,0,1015.0933)" />
      <path
         id="path9"
         d="m 1596.09,4933.68 c 268.39,-317.02 657.31,-531.98 1103.71,-569.97 236.49,-20.26 465.39,11.9 675.8,85.58 -484.64,10.64 -896.59,182.06 -1200.18,452.99 -220.8,-0.52 -429.44,10.63 -579.33,31.4"
         style="fill:#ed1f42;fill-opacity:1;fill-rule:nonzero;stroke:none"
         transform="matrix(0.13333333,0,0,-0.13333333,0,1015.0933)" />
      <path
         id="path10"
         d="m 2161.19,7465.5 c -464.63,-212.94 -816.08,-639.85 -919.13,-1165.25 124.58,0 248.65,9.12 378.54,26.6 40,449.43 240.79,845.95 540.59,1138.65"
         style="fill:#ed1f42;fill-opacity:1;fill-rule:nonzero;stroke:none"
         transform="matrix(0.13333333,0,0,-0.13333333,0,1015.0933)" />
      <path
         id="path11"
         d="m 2713.96,5620.48 c -185.35,-45.33 -446.15,-71.92 -713.02,-82.56 97.99,-199.77 231.93,-379.8 393.98,-531.21 158.51,12.91 303.34,30.9 403.86,55.45 975.08,238.26 1667.34,889.24 1546.05,1453.9 -16.96,79.49 -50.39,152.42 -95.96,219.26 -179.52,-469.93 -749.22,-922.91 -1534.91,-1114.84"
         style="fill:#ed1f42;fill-opacity:1;fill-rule:nonzero;stroke:none"
         transform="matrix(0.13333333,0,0,-0.13333333,0,1015.0933)" />
      <path
         id="path12"
         d="m 3083.83,4984.06 c -152.93,-37.48 -360.56,-61.03 -578.57,-72.93 270.68,-215.22 605.67,-355.76 976.1,-387.41 21.52,-2.02 42.79,-3.03 64.06,-4.05 500.33,242.06 863.67,733.79 914.32,1327.56 1.77,20.75 2.78,41.52 3.79,62.28 -209.9,-396.02 -710.99,-761.88 -1379.7,-925.45"
         style="fill:#ed1f42;fill-opacity:1;fill-rule:nonzero;stroke:none"
         transform="matrix(0.13333333,0,0,-0.13333333,0,1015.0933)" />
      <path
         id="path13"
         d="m 3545.2,7451.55 c -173.7,83.81 -365.12,138.24 -568.95,155.72 -260.8,22.27 -512.49,-18.75 -740.37,-109.65 -229.4,-275.98 -380.06,-621.87 -412.97,-1006.48 -3.54,-44.57 -5.32,-88.61 -5.82,-132.67 48.36,8.85 97.23,18.48 148.12,29.12 866.46,184.07 1514.91,634.78 1579.99,1063.96"
         style="fill:#ed1f42;fill-opacity:1;fill-rule:nonzero;stroke:none"
         transform="matrix(0.13333333,0,0,-0.13333333,0,1015.0933)" />
      <path
         id="path14"
         d="m 2294.17,6315.75 c -162.06,-34.44 -321.32,-56.98 -475.27,-69.12 10.38,-211.68 57.23,-415.26 134.96,-603.65 178.76,13.93 342.58,33.94 454.5,61.28 920.64,224.84 1605.56,793.04 1666.83,1338.68 -85.07,99.26 -181.8,188.63 -288.65,265.36 -113.18,-406.13 -682.89,-820.63 -1492.37,-992.55"
         style="fill:#ed1f42;fill-opacity:1;fill-rule:nonzero;stroke:none"
         transform="matrix(0.13333333,0,0,-0.13333333,0,1015.0933)" />
      <path
         id="path15"
         d="m 5172.11,6878.11 h 469.19 v -1746.6 h -469.19 v 1746.6"
         style="fill:#ed1f42;fill-opacity:1;fill-rule:nonzero;stroke:none"
         transform="matrix(0.13333333,0,0,-0.13333333,0,1015.0933)" />
      <path
         id="path16"
         d="M 6174.45,6878.17 H 7783.29 V 6536.33 H 6640.59 V 6182.11 H 7646.06 V 5840.27 H 6640.59 V 5473.39 H 7798.48 V 5131.57 H 6174.45 v 1746.6"
         style="fill:#ed1f42;fill-opacity:1;fill-rule:nonzero;stroke:none"
         transform="matrix(0.13333333,0,0,-0.13333333,0,1015.0933)" />
      <path
         id="path17"
         d="m 9394.38,5862.65 -283.34,566.41 -283.33,-566.41 z m -493.5,1028 h 432.47 l 914.05,-1759 h -490.44 l -194.97,391.7 h -901.91 l -194.96,-391.7 h -478.56 l 914.32,1759"
         style="fill:#ed1f42;fill-opacity:1;fill-rule:nonzero;stroke:none"
         transform="matrix(0.13333333,0,0,-0.13333333,0,1015.0933)" />
    </g>
  </g>
</svg>
