<?xml version="1.0" encoding="UTF-8"?>
<svg version="1.1" xmlns="http://www.w3.org/2000/svg" width="2533" height="1079">
<path d="M0 0 C0.36536865 0.80590576 0.7307373 1.61181152 1.10717773 2.44213867 C8.86639239 19.55038384 16.6603255 36.64208736 24.51095581 53.70858765 C30.02059946 65.68608062 35.51164178 77.67189507 40.98846436 89.66442871 C46.51982919 101.77522801 52.07689779 113.87406605 57.6411438 125.9697876 C62.910725 137.42729652 68.14213314 148.90154446 73.34988403 160.38726807 C78.51776212 171.78087675 83.7487359 183.14460987 89 194.5 C94.56042667 206.52392659 100.09203697 218.55986332 105.5625 230.625 C110.82150559 242.223477 116.11527488 253.80539058 121.4375 265.375 C126.97359259 277.40973868 132.49686989 289.45015105 138 301.5 C143.48407279 313.50735056 148.9853807 325.50664846 154.5 337.5 C160.03381171 349.5357529 165.55674622 361.57638446 171.0625 373.625 C171.39105988 374.34399475 171.71961975 375.0629895 172.05813599 375.80377197 C174.70261258 381.59113505 177.34614061 387.37893127 179.98962402 393.16674805 C182.30513417 398.23637034 184.62102928 403.30581654 186.9375 408.375 C187.43021896 409.45325043 187.43021896 409.45325043 187.93289185 410.55328369 C193.10745509 421.8755214 198.29976771 433.1895318 203.5 444.5 C209.03371759 456.53579635 214.5567461 468.5763842 220.0625 480.625 C220.39105988 481.34399475 220.71961975 482.0629895 221.05813599 482.80377197 C223.70261258 488.59113505 226.34614061 494.37893127 228.98962402 500.16674805 C231.30513417 505.23637034 233.62102928 510.30581654 235.9375 515.375 C236.26597931 516.09383362 236.59445862 516.81266724 236.93289185 517.55328369 C242.10745509 528.8755214 247.29976771 540.1895318 252.5 551.5 C258.03371759 563.53579635 263.5567461 575.5763842 269.0625 587.625 C269.39105988 588.34399475 269.71961975 589.0629895 270.05813599 589.80377197 C272.70261258 595.59113505 275.34614061 601.37893127 277.98962402 607.16674805 C280.30513417 612.23637034 282.62102928 617.30581654 284.9375 622.375 C285.26597931 623.09383362 285.59445862 623.81266724 285.93289185 624.55328369 C291.10745509 635.8755214 296.29976771 647.1895318 301.5 658.5 C307.03371763 670.53579645 312.55671263 682.57639943 318.0625 694.625 C318.38939819 695.34033905 318.71629639 696.0556781 319.05310059 696.79269409 C322.05638844 703.36509723 325.05844476 709.93806267 328.06005859 716.51123047 C329.78357079 720.28549791 331.50765392 724.05950425 333.23190308 727.83343506 C334.23729699 730.0346875 335.24185429 732.23632032 336.24633789 734.43798828 C339.36161384 741.26163606 342.49381068 748.07643737 345.671875 754.87109375 C346.24191578 756.09299248 346.81190425 757.31491561 347.38183594 758.53686523 C348.43219474 760.78480423 349.48726199 763.03055143 350.54785156 765.27368164 C351.00643555 766.2558667 351.46501953 767.23805176 351.9375 768.25 C352.33839844 769.10078125 352.73929688 769.9515625 353.15234375 770.828125 C354 773 354 773 354 776 C310.11 776 266.22 776 221 776 C210.89684906 754.10983964 200.87151717 732.26595443 191.12890625 710.2265625 C186.31771364 699.38305046 181.29337983 688.63878668 176.28201294 677.88677979 C170.73350474 665.9761215 165.30044253 654.0230283 160 642 C154.28435915 629.03833821 148.41310713 616.15638752 142.4375 603.3125 C141.83752701 602.02289871 141.83752701 602.02289871 141.22543335 600.70724487 C140.82772736 599.85244537 140.43002136 598.99764587 140.02026367 598.11694336 C133.10774256 583.25790667 126.28816352 568.35847438 119.54492188 553.421875 C118.56055958 551.24159341 117.57500978 549.06184731 116.58789062 546.8828125 C115.40854825 544.27791103 114.23417554 541.67085692 113.0625 539.0625 C112.73805908 538.34650635 112.41361816 537.6305127 112.0793457 536.89282227 C110 532.23221983 110 532.23221983 110 530 C-39.16 530 -188.32 530 -342 530 C-342.33 531.65 -342.66 533.3 -343 535 C-344.10823816 537.62144047 -345.25534654 540.18437908 -346.47265625 542.75390625 C-346.82697723 543.51395462 -347.18129822 544.27400299 -347.5463562 545.05708313 C-348.3125386 546.69995601 -349.08101502 548.34176057 -349.85153198 549.98260498 C-351.92649302 554.40318551 -353.98298133 558.83233231 -356.0390625 563.26171875 C-356.45931198 564.16645935 -356.87956146 565.07119995 -357.31254578 566.00335693 C-361.28854996 574.58317315 -365.12582226 583.22124827 -368.9375 591.875 C-375.03321927 605.69938821 -381.33537276 619.4191694 -387.71798706 633.11322021 C-393.26649526 645.0238785 -398.69955747 656.9769717 -404 669 C-410.48560017 683.70773936 -417.19471276 698.30366948 -423.97753906 712.87646484 C-429.98213111 725.77973164 -435.90530721 738.71781926 -441.76490784 751.68754578 C-445.45159981 759.82258744 -449.22183504 767.90393222 -453 776 C-496.89 776 -540.78 776 -586 776 C-584.12629798 770.37889393 -582.45452519 765.52094311 -579.953125 760.28125 C-579.52173721 759.37062553 -579.52173721 759.37062553 -579.08163452 758.44160461 C-578.46402893 757.13866421 -577.84425602 755.83674924 -577.22247314 754.53579712 C-575.52452577 750.98127595 -573.8449753 747.41806909 -572.1640625 743.85546875 C-571.81656952 743.11979172 -571.46907654 742.38411469 -571.11105347 741.62614441 C-567.54143136 734.05513702 -564.07525101 726.43847423 -560.625 718.8125 C-559.37672481 716.05579796 -558.12798718 713.29930579 -556.87890625 710.54296875 C-556.40770607 709.50305786 -556.40770607 709.50305786 -555.92698669 708.44213867 C-552.16892296 700.15594893 -548.36560129 691.89058951 -544.5625 683.625 C-539.02615142 671.5903799 -533.50302012 659.54989809 -528 647.5 C-522.13958289 634.66751395 -516.25458049 621.84651117 -510.3588562 609.0302124 C-505.089275 597.57270348 -499.85786686 586.09845554 -494.65011597 574.61273193 C-489.10351509 562.38415401 -483.48161198 550.19108609 -477.84552002 538.00354004 C-472.67071082 526.81142792 -467.52934745 515.60509791 -462.4375 504.375 C-457.17849441 492.776523 -451.88472512 481.19460942 -446.5625 469.625 C-441.02640741 457.59026132 -435.50313011 445.54984895 -430 433.5 C-424.51592697 421.4926489 -419.0144319 409.49343803 -413.5 397.5 C-408.60188349 386.84523767 -403.70461832 376.19009199 -398.82763672 365.52563477 C-397.49496364 362.61207874 -396.15626598 359.70140552 -394.81298828 356.79272461 C-391.54123347 349.69002383 -388.37257409 342.56451291 -385.37890625 335.33984375 C-379.41847986 321.08287876 -374.37418524 309.64832473 -361 301 C-359.06431781 299.46111994 -357.1464172 297.8995158 -355.25 296.3125 C-354.36828125 295.59707031 -353.4865625 294.88164063 -352.578125 294.14453125 C-349.989627 291.99137155 -347.48959759 289.76647328 -345 287.5 C-340.75429668 283.63540706 -336.37039646 279.98835916 -331.91015625 276.375 C-328.78570211 273.82510991 -325.70027196 271.23376456 -322.625 268.625 C-322.08270752 268.16512695 -321.54041504 267.70525391 -320.98168945 267.23144531 C-319.32052232 265.82167288 -317.66012031 264.41100496 -316 263 C-309.89111965 257.80780978 -303.78489359 252.61876419 -297.5625 247.5625 C-292.69870975 243.60491812 -287.94118769 239.53457554 -283.19165039 235.44165039 C-278.8019965 231.66665609 -274.33885229 227.99271539 -269.84375 224.34375 C-266.52313514 221.60697951 -263.25953218 218.8089705 -260 216 C-255.01059233 211.70027287 -249.95778844 207.49514591 -244.84375 203.34375 C-241.52313514 200.60697951 -238.25953218 197.8089705 -235 195 C-230.01059233 190.70027287 -224.95778844 186.49514591 -219.84375 182.34375 C-216.52313406 179.60697862 -213.25956291 176.80893615 -210 174 C-204.9896219 169.6830436 -199.92100914 165.45283658 -194.78515625 161.28515625 C-191.6162919 158.68517639 -188.49488913 156.03331897 -185.375 153.375 C-180.35838627 149.10450002 -175.25377967 144.97766781 -170 141 C-169.67 141.66 -169.34 142.32 -169 143 C-169.96404097 145.52453065 -170.99662281 147.93390964 -172.12890625 150.3828125 C-172.46932953 151.13580124 -172.80975281 151.88878998 -173.16049194 152.66459656 C-173.89947948 154.2970365 -174.64202405 155.92786975 -175.38766479 157.55728149 C-176.97635995 161.02953185 -178.54782985 164.50948202 -180.12019348 167.989151 C-180.92385033 169.76732007 -181.72837268 171.54509821 -182.53373718 173.32249451 C-186.0668962 181.12445034 -189.51871911 188.95989079 -192.9375 196.8125 C-193.50030273 198.10315415 -194.06321085 199.39376236 -194.6262207 200.68432617 C-195.49496336 202.67575449 -196.36365145 204.66720623 -197.23194885 206.65882874 C-201.05515192 215.42546344 -204.90378353 224.18094477 -208.75 232.9375 C-209.51555771 234.68073925 -210.28110128 236.42398472 -211.04663086 238.16723633 C-212.59285004 241.68818889 -214.13916778 245.20909814 -215.68554688 248.72998047 C-219.0842149 256.46847237 -222.48158217 264.20753532 -225.87902832 271.94656372 C-227.75263044 276.21440001 -229.62631969 280.48219804 -231.5 284.75 C-232.25000042 286.45833315 -233.00000042 288.16666648 -233.75 289.875 C-235.25 293.29166667 -236.75 296.70833333 -238.25 300.125 C-238.62124496 300.97061493 -238.99248993 301.81622986 -239.37498474 302.68746948 C-240.12503144 304.39590637 -240.87508231 306.10434143 -241.62513733 307.81277466 C-243.49945689 312.08200869 -245.3737043 316.35127437 -247.24780273 320.62060547 C-250.63014934 328.32564292 -254.0129909 336.03046089 -257.39859009 343.73406982 C-258.92251194 347.20173574 -260.44600762 350.66958883 -261.96948242 354.13745117 C-262.66458813 355.71941054 -263.35987966 357.30128828 -264.05541992 358.88305664 C-272.41802556 377.90127452 -280.69831466 396.95495716 -289 416 C-174.49 416.33 -59.98 416.66 58 417 C53.38 406.77 48.76 396.54 44 386 C41.57647297 380.48867239 39.15418477 374.97937975 36.76528931 369.45339966 C35.0159222 365.40785165 33.25783642 361.36609234 31.5 357.32421875 C31.13554276 356.48600082 30.77108551 355.6477829 30.39558411 354.78416443 C26.07534183 344.85894776 21.69393101 334.96081725 17.3125 325.0625 C11.83116184 312.67664425 6.35932621 300.28703624 0.9375 287.875 C0.66245636 287.24537354 0.38741272 286.61574707 0.10403442 285.96704102 C-0.17191559 285.33531982 -0.4478656 284.70359863 -0.73217773 284.05273438 C-1.29670138 282.76041192 -1.86123599 281.46809426 -2.42578125 280.17578125 C-2.70866501 279.52819855 -2.99154877 278.88061584 -3.28300476 278.21340942 C-7.09429015 269.49159671 -10.92277284 260.77732574 -14.75 252.0625 C-15.12843048 251.20074158 -15.50686096 250.33898315 -15.89675903 249.45111084 C-17.8262354 245.05736121 -19.75585006 240.66367234 -21.68554688 236.27001953 C-25.0842149 228.53152763 -28.48158217 220.79246468 -31.87902832 213.05343628 C-33.75263044 208.78559999 -35.62631969 204.51780196 -37.5 200.25 C-38.25000042 198.54166685 -39.00000042 196.83333352 -39.75 195.125 C-40.12125 194.279375 -40.4925 193.43375 -40.875 192.5625 C-44.24999997 184.87500006 -44.24999997 184.87500006 -45.37492371 182.31266785 C-46.1251722 180.60377247 -46.87542651 178.89487965 -47.62568665 177.18598938 C-49.49693247 172.92377627 -51.3680781 168.66151923 -53.23901367 164.39916992 C-57.43812575 154.83312438 -61.63971454 145.26817413 -65.84474182 135.70472717 C-67.75241393 131.36526147 -69.65824088 127.02500326 -71.55981445 122.68286133 C-71.92458389 121.84997086 -72.28935333 121.01708038 -72.66517639 120.15895081 C-73.38915046 118.50585293 -74.11305875 116.85272626 -74.8368988 115.1995697 C-76.89969324 110.4934445 -78.97810494 105.7946749 -81.07228088 101.10243225 C-82.32679979 98.28796312 -83.57271902 95.4697403 -84.81698608 92.65072632 C-85.39082225 91.35658243 -85.96871592 90.06422899 -86.55093384 88.77383423 C-87.3398997 87.02443604 -88.11374779 85.26824289 -88.88671875 83.51171875 C-89.32201904 82.53678467 -89.75731934 81.56185059 -90.20581055 80.55737305 C-91.06225719 77.79952534 -91.10840657 76.63278101 -90 74 C-88.1015625 71.95703125 -88.1015625 71.95703125 -85.625 69.8125 C-84.71621094 69.02230469 -83.80742187 68.23210937 -82.87109375 67.41796875 C-79.24722355 64.36602908 -75.5914753 61.35733442 -71.91015625 58.375 C-68.78570211 55.82510991 -65.70027196 53.23376456 -62.625 50.625 C-62.08270752 50.16512695 -61.54041504 49.70525391 -60.98168945 49.23144531 C-59.32052232 47.82167288 -57.66012031 46.41100496 -56 45 C-49.89111965 39.80780978 -43.78489359 34.61876419 -37.5625 29.5625 C-33.31607452 26.10725714 -29.14706799 22.57298808 -25 19 C-19.07898458 13.89932729 -13.08366658 8.90650183 -7 4 C-6.11441406 3.2575 -5.22882812 2.515 -4.31640625 1.75 C-2 0 -2 0 0 0 Z " fill="#117881" transform="translate(2165,266)"/>
<path d="M0 0 C1.04656769 -0.00701431 2.09313538 -0.01402863 3.17141724 -0.02125549 C6.529687 -0.03866238 9.88778054 -0.04510748 13.24609375 -0.046875 C14.96525497 -0.04788712 14.96525497 -0.04788712 16.71914673 -0.04891968 C33.2313035 -0.03344897 49.39217743 0.25021576 65.68359375 3.203125 C67.15675049 3.46053467 67.15675049 3.46053467 68.65966797 3.72314453 C120.08741239 12.93224135 169.56579954 34.98794014 207.68359375 71.203125 C209.0108749 72.35596348 210.34387369 73.50226567 211.68359375 74.640625 C219.65845282 81.60435675 226.86829721 89.13157484 233.453125 97.41796875 C235.71444222 100.24164506 238.06915023 102.96554868 240.43359375 105.703125 C250.73968339 118.06081569 263.54178435 133.77769679 268.68359375 149.203125 C261.63709689 154.08256567 254.31312743 158.45866717 246.93127441 162.80279541 C243.36449703 164.90255939 239.80327451 167.01169778 236.2421875 169.12109375 C235.51959747 169.54902222 234.79700745 169.97695068 234.05252075 170.41784668 C227.72395893 174.17014908 221.4237742 177.9678385 215.13806152 181.79141235 C213.43942239 182.82457983 211.73973224 183.85601866 210.04003906 184.88745117 C204.61577364 188.18353776 199.2027338 191.49557661 193.81045532 194.84365845 C191.21116051 196.45597615 188.60724143 198.06073417 186.00280762 199.66473389 C184.75687035 200.43504885 183.51325483 201.2091329 182.27209473 201.98712158 C180.55949006 203.06045558 178.8385281 204.12042022 177.1171875 205.1796875 C176.13806396 205.78893066 175.15894043 206.39817383 174.15014648 207.02587891 C171.68359375 208.203125 171.68359375 208.203125 168.68359375 207.203125 C167.18481445 205.32055664 167.18481445 205.32055664 165.609375 202.86328125 C165.02824951 201.96971924 164.44712402 201.07615723 163.84838867 200.15551758 C162.93150269 198.72502075 162.93150269 198.72502075 161.99609375 197.265625 C157.19955233 189.93064025 152.45688327 182.81169896 146.68359375 176.203125 C146.01585937 175.42710937 145.348125 174.65109375 144.66015625 173.8515625 C142.37885206 171.25729961 140.04662439 168.72320404 137.68359375 166.203125 C137.21324707 165.6987793 136.74290039 165.19443359 136.25830078 164.67480469 C105.81055545 132.28526401 63.48437867 117.566739 19.64794922 116.13671875 C-28.04658892 114.84037796 -76.03108698 131.04337832 -111.1796875 163.74609375 C-119.33318635 171.54833353 -126.20890551 179.72365859 -132.31640625 189.203125 C-132.94933594 190.16347656 -133.58226562 191.12382812 -134.234375 192.11328125 C-144.28142671 208.23735762 -150.60708335 228.16962722 -151.31640625 247.203125 C-151.36796875 248.28078125 -151.41953125 249.3584375 -151.47265625 250.46875 C-152.30475559 283.05930737 -139.31967411 310.94492586 -117.12109375 334.33203125 C-102.78881378 349.13414097 -86.14559503 360.08203146 -68.31640625 370.203125 C-67.10718506 370.89124268 -67.10718506 370.89124268 -65.87353516 371.59326172 C-33.11207412 390.00625045 3.44479057 401.98368376 38.42480469 415.40673828 C60.14737947 423.74567677 81.60080789 432.33887563 102.68359375 442.203125 C103.76479492 442.70263672 104.84599609 443.20214844 105.95996094 443.71679688 C121.30913746 450.81665657 136.11118743 458.6237702 150.68359375 467.203125 C151.48345703 467.67073242 152.28332031 468.13833984 153.10742188 468.62011719 C174.38884043 481.11373104 194.3332968 495.5265982 212.51953125 512.22265625 C214.58350583 514.11152829 216.68649629 515.9425876 218.80859375 517.765625 C225.64556253 523.73593577 231.86612915 530.24234365 237.68359375 537.203125 C238.10624512 537.70666504 238.52889648 538.21020508 238.96435547 538.72900391 C272.34954224 578.73777455 296.19398776 630.54555311 297.68359375 683.203125 C296.72888184 682.85254028 296.72888184 682.85254028 295.75488281 682.49487305 C292.48126978 681.293048 289.20745409 680.09177622 285.93359375 678.890625 C285.29279877 678.65548187 284.65200378 678.42033875 283.99179077 678.17807007 C274.53987787 674.71015142 265.08394146 671.25338958 255.625 667.8046875 C230.27158667 658.55922635 204.9253442 649.29712534 179.6648407 639.8001709 C175.26670914 638.15185447 170.85814608 636.54248939 166.42642212 634.98674011 C164.55342491 634.32761225 162.685059 633.65536921 160.81689453 632.98266602 C158.66971185 632.21028143 156.51501337 631.45824324 154.35107422 630.73413086 C147.18029904 628.11133037 143.89075211 624.45768176 139.68359375 618.203125 C136.78395529 614.77355261 133.75091064 611.48317515 130.68359375 608.203125 C129.884375 607.33816406 129.08515625 606.47320313 128.26171875 605.58203125 C110.10060958 586.62293395 86.61102348 572.61338513 63.68359375 560.203125 C62.41539795 559.51645752 62.41539795 559.51645752 61.12158203 558.81591797 C30.77110548 542.60699145 -1.74662092 530.26655747 -33.41601562 516.91455078 C-146.35219786 469.29605115 -146.35219786 469.29605115 -192.31640625 430.203125 C-193.41099472 429.29371253 -194.50607529 428.38489214 -195.6015625 427.4765625 C-208.00349002 417.11532681 -219.40723406 406.00021623 -229.31640625 393.203125 C-230.13753906 392.17574219 -230.95867188 391.14835937 -231.8046875 390.08984375 C-237.5850821 382.81021769 -242.72821601 375.30136183 -247.31640625 367.203125 C-247.73535156 366.47158203 -248.15429688 365.74003906 -248.5859375 364.98632812 C-267.87727206 330.93462087 -276.00143784 293.92066572 -275.75390625 255.015625 C-275.75086487 253.9933078 -275.74782349 252.9709906 -275.74468994 251.91769409 C-275.67357723 235.69530431 -274.78120563 220.10137686 -271.31640625 204.203125 C-271.10741699 203.19958984 -270.89842773 202.19605469 -270.68310547 201.16210938 C-262.26510602 161.53760862 -243.78338723 125.24373956 -216.37109375 95.44140625 C-214.43538022 93.33272973 -212.55820649 91.18526172 -210.69140625 89.015625 C-205.04017266 82.54593689 -198.89668176 76.71802257 -192.31640625 71.203125 C-191.5589209 70.56697266 -191.5589209 70.56697266 -190.78613281 69.91796875 C-138.61093012 26.38305239 -68.04460377 0.30637443 0 0 Z " fill="#E4423C" transform="translate(1250.31640625,36.796875)"/>
<path d="M0 0 C53.7075 -0.061875 53.7075 -0.061875 108.5 -0.125 C125.36963867 -0.15231201 125.36963867 -0.15231201 142.58007812 -0.18017578 C156.46386719 -0.18920898 156.46386719 -0.18920898 162.99255371 -0.19088745 C167.48866813 -0.1927279 171.98473385 -0.20012973 176.48083496 -0.21115112 C207.71981273 -0.28434661 238.83497376 -0.17933913 269.875 3.8125 C270.54314728 3.89648041 271.21129456 3.98046082 271.89968872 4.06698608 C329.3704906 11.32566919 387.75657553 29.88437834 430.51171875 70.62890625 C432.61809341 72.63607959 434.76611653 74.51418872 437 76.375 C480.03059111 113.88199556 504.03440821 172.14479199 514 227 C514.17934082 227.95052246 514.35868164 228.90104492 514.54345703 229.88037109 C517.33147439 245.33213364 517.3068951 260.91149232 517.375 276.5625 C517.38705475 278.10410294 517.38705475 278.10410294 517.39935303 279.67684937 C517.74143248 337.42550551 499.95929035 396.08802189 466 443 C465.34088623 443.91144775 465.34088623 443.91144775 464.66845703 444.84130859 C459.60704753 451.76553144 454.13306892 458.2452015 448.2890625 464.5234375 C446.35416784 466.61682183 444.51423094 468.75082207 442.6875 470.9375 C406.16825634 512.62536051 350.75832995 533.79670362 298 545 C297.22857666 545.18900879 296.45715332 545.37801758 295.66235352 545.57275391 C288.24469087 546.76311701 282.93087671 545.65664928 276.0546875 542.984375 C275.19336212 542.6619986 274.33203674 542.33962219 273.4446106 542.00747681 C270.5834172 540.93358974 267.72946528 539.8416315 264.875 538.75 C262.82474417 537.97728286 260.77394957 537.20599391 258.72265625 536.43603516 C254.3700006 534.80100009 250.01973006 533.15982618 245.67089844 531.51464844 C235.90760266 527.82702018 226.11506238 524.21856738 216.32476807 520.60339355 C210.65257537 518.50770303 204.98257553 516.40609805 199.3125 514.3046875 C198.15549591 513.87595337 196.99849182 513.44721924 195.806427 513.00549316 C180.55452121 507.35336492 165.30506834 501.69462257 150.05541992 496.03640747 C132.98041221 489.70095074 115.90414608 483.36891054 98.82522583 477.04400635 C95.52656013 475.82233661 92.22799374 474.60039903 88.92944336 473.37841797 C78.5920664 469.54927161 68.2535431 465.72327522 57.91213989 461.90501404 C52.98173716 460.08438027 48.05188061 458.2622702 43.12207031 456.44003296 C40.786894 455.57733506 38.45145353 454.71535179 36.11572266 453.85415649 C32.8694402 452.65719938 29.62409004 451.45774454 26.37890625 450.2578125 C25.44675797 449.91486649 24.51460968 449.57192047 23.55421448 449.21858215 C15.63727479 446.28667337 7.84797291 443.13918916 0 440 C0 294.8 0 149.6 0 0 Z M110 102 C110 217.17 110 332.34 110 451 C230.80897828 455.54092994 230.80897828 455.54092994 345 412 C345.82371094 411.38970947 345.82371094 411.38970947 346.6640625 410.76708984 C381.70529009 384.72736703 398.90873915 347.93093371 405.25390625 305.44140625 C406.16555186 298.9538046 406.8442782 292.55385659 407 286 C407.02046387 285.15566406 407.04092773 284.31132812 407.06201172 283.44140625 C407.94527187 240.86972686 401.51804992 196.38805537 373 163 C372.18273437 162.00871094 371.36546875 161.01742187 370.5234375 159.99609375 C332.81000588 116.30092449 269.47785992 107.50577504 215.23046875 103.453125 C180.03717698 101.5155731 145.37652527 102 110 102 Z " fill="#E3423D" transform="translate(20,58)"/>
<path d="M0 0 C10.31291629 2.50039654 20.51063471 5.23918314 30.671875 8.30859375 C32.03251645 8.71658706 33.39326268 9.12423107 34.75410461 9.53155518 C37.61558815 10.38873382 40.47641973 11.24803867 43.33670044 12.10922241 C47.79954446 13.45290827 52.26373798 14.79206665 56.72827148 16.13012695 C57.84419064 16.46457966 57.84419064 16.46457966 58.98265362 16.80578899 C60.48344589 17.25557406 61.98424411 17.7053393 63.48504829 18.15508461 C65.72572347 18.82670265 67.96625744 19.49879008 70.20677185 20.17094421 C79.16948691 22.85881771 88.13751087 25.527848 97.11328125 28.171875 C98.6785405 28.63298424 98.6785405 28.63298424 100.27542114 29.10340881 C105.04246144 30.50667445 109.81043035 31.90673124 114.57910156 33.30444336 C116.23112798 33.79017397 117.88314675 34.27593062 119.53515625 34.76171875 C120.27453934 34.97741516 121.01392242 35.19311157 121.77571106 35.41534424 C126.77384081 36.88692041 126.77384081 36.88692041 129 38 C130.78335625 114.19961173 105.58876897 191.1843388 53.2734375 247.54296875 C51.25815584 249.72099653 49.30727564 251.93609286 47.375 254.1875 C41.42943884 261.01027511 34.92848138 267.18831608 28 273 C27.45875488 273.45503906 26.91750977 273.91007812 26.35986328 274.37890625 C-28.45774275 320.26316412 -99.48705939 348.88951744 -171.44921875 349.203125 C-172.50494583 349.20882507 -173.56067291 349.21452515 -174.64839172 349.22039795 C-176.87276227 349.22977799 -179.09714627 349.23635378 -181.3215332 349.24023438 C-184.63454213 349.24984635 -187.94690405 349.28089956 -191.25976562 349.3125 C-210.55465601 349.40830302 -229.6536746 347.71359388 -248.5625 343.75 C-249.57731445 343.54093018 -250.59212891 343.33186035 -251.63769531 343.11645508 C-303.01216315 332.15239182 -351.74052722 307.71528525 -390.1171875 271.6953125 C-392.97689767 269.02159974 -395.88963065 266.41680048 -398.8125 263.8125 C-402.56902536 260.39991974 -406.01955173 256.91214947 -409.28125 253.02734375 C-411.16398583 250.80657126 -413.1413438 248.69349299 -415.125 246.5625 C-433.87808669 225.73283642 -449.00431644 201.33851919 -461.00976562 176.07958984 C-461.68338452 174.66492373 -462.36468058 173.2538933 -463.05273438 171.84619141 C-477.1053695 143.0029686 -491 105.35510149 -491 73 C-465.94634172 67.35362279 -440.84495468 61.95807603 -415.70581055 56.70605469 C-410.80983011 55.68309483 -405.91489161 54.6552342 -401.02017879 53.62622833 C-397.20406181 52.82461773 -393.38736946 52.0257753 -389.57049751 51.22776794 C-387.76136441 50.84912161 -385.95242563 50.46954554 -384.14369011 50.08900452 C-381.65098974 49.56492707 -379.15752564 49.04465252 -376.66381836 48.52539062 C-375.55858826 48.29177322 -375.55858826 48.29177322 -374.43103027 48.05343628 C-371.55867885 47.45877287 -368.94277293 47 -366 47 C-365.96559814 47.65145996 -365.93119629 48.30291992 -365.89575195 48.97412109 C-363.16015464 97.60413471 -348.80999903 140.26300621 -315 176 C-314.24332031 176.80953125 -313.48664063 177.6190625 -312.70703125 178.453125 C-301.58531726 189.99213006 -288.79056988 198.94944951 -275 207 C-274.02885254 207.57596924 -274.02885254 207.57596924 -273.03808594 208.16357422 C-250.41355045 221.43384328 -224.03271994 229.24284001 -198 232 C-196.97390625 232.11085938 -195.9478125 232.22171875 -194.890625 232.3359375 C-158.30546766 235.7032281 -122.25057432 228.63858334 -90 211 C-89.37673828 210.66274902 -88.75347656 210.32549805 -88.11132812 209.97802734 C-77.4510041 204.13481644 -68.20344506 196.90714947 -59 189 C-58.01515625 188.15824219 -57.0303125 187.31648437 -56.015625 186.44921875 C-18.65160674 153.67078455 1.03131944 103.38942776 4.55297852 54.74047852 C5.6703032 36.03117442 3.66815477 18.31125543 0 0 Z " fill="#117781" transform="translate(1421,714)"/>
<path d="M0 0 C11.5551554 3.34419792 22.92742272 7.01353831 33.98828125 11.75390625 C38.36898921 13.56641707 42.83326443 15.11513145 47.3046875 16.6875 C51.17781382 18.06315586 55.02854571 19.48940658 58.875 20.9375 C59.54313721 21.18878662 60.21127441 21.44007324 60.8996582 21.69897461 C63.59821918 22.71510542 66.29593177 23.73345126 68.99267578 24.75439453 C77.10907615 27.82681736 85.23691076 30.84104 93.45092773 33.64453125 C100.73416708 36.16788731 107.85619014 39.11092058 115 42 C115.32385373 62.51405759 115.62148644 82.72537908 112 103 C111.83371094 103.95519531 111.66742187 104.91039062 111.49609375 105.89453125 C104.1256426 147.11446173 88.62975939 186.97600476 64 221 C63.56059082 221.60763184 63.12118164 222.21526367 62.66845703 222.84130859 C57.60704753 229.76553144 52.13306892 236.2452015 46.2890625 242.5234375 C44.35416784 244.61682183 42.51423094 246.75082207 40.6875 248.9375 C4.16825634 290.62536051 -51.24167005 311.79670362 -104 323 C-104.77142334 323.18900879 -105.54284668 323.37801758 -106.33764648 323.57275391 C-113.75530913 324.76311701 -119.06912329 323.65664928 -125.9453125 320.984375 C-126.80663788 320.6619986 -127.66796326 320.33962219 -128.5553894 320.00747681 C-131.4165828 318.93358974 -134.27053472 317.8416315 -137.125 316.75 C-139.17525583 315.97728286 -141.22605043 315.20599391 -143.27734375 314.43603516 C-147.6299994 312.80100009 -151.98026994 311.15982618 -156.32910156 309.51464844 C-166.09239734 305.82702018 -175.88493762 302.21856738 -185.67523193 298.60339355 C-191.34742463 296.50770303 -197.01742447 294.40609805 -202.6875 292.3046875 C-203.84450409 291.87595337 -205.00150818 291.44721924 -206.193573 291.00549316 C-221.44547879 285.35336492 -236.69493166 279.69462257 -251.94458008 274.03640747 C-269.01958779 267.70095074 -286.09585392 261.36891054 -303.17477417 255.04400635 C-306.47343987 253.82233661 -309.77200626 252.60039903 -313.07055664 251.37841797 C-323.4079336 247.54927161 -333.7464569 243.72327522 -344.08786011 239.90501404 C-349.01826284 238.08438027 -353.94811939 236.2622702 -358.87792969 234.44003296 C-361.213106 233.57733506 -363.54854647 232.71535179 -365.88427734 231.85415649 C-369.1305598 230.65719938 -372.37590996 229.45774454 -375.62109375 228.2578125 C-376.55324203 227.91486649 -377.48539032 227.57192047 -378.44578552 227.21858215 C-386.35542121 224.28937828 -394.17902066 221.15642454 -402 218 C-402.30219894 207.10813463 -402.53268316 196.21727754 -402.67355824 185.32206249 C-402.74120104 180.26177849 -402.83281007 175.20437683 -402.98071289 170.14575195 C-403.1227541 165.25659062 -403.19984874 160.37018659 -403.23340416 155.47912025 C-403.25728951 153.62053329 -403.30393997 151.7620851 -403.37449074 149.90468407 C-403.93160799 134.61895574 -403.93160799 134.61895574 -399.21273804 129.49478149 C-396.04838971 126.60006767 -392.59778411 124.3231421 -389 122 C-387.14848838 120.52249676 -385.31156002 119.02622456 -383.5 117.5 C-382.61441406 116.77941406 -381.72882813 116.05882812 -380.81640625 115.31640625 C-377.66214808 112.72212734 -374.5479702 110.08393735 -371.4375 107.4375 C-366.88715684 103.56758198 -362.27167165 99.80040103 -357.58984375 96.08984375 C-353.96869031 93.16779685 -350.43045431 90.15178514 -346.88671875 87.13671875 C-342.57534434 83.47306256 -338.20498127 79.88731372 -333.81640625 76.31640625 C-330.66214808 73.72212734 -327.5479702 71.08393735 -324.4375 68.4375 C-319.89827392 64.5770367 -315.29778574 60.8148357 -310.62109375 57.12109375 C-308.58491995 55.47334059 -306.58520878 53.80261314 -304.59765625 52.09765625 C-303.71883789 51.34452148 -303.71883789 51.34452148 -302.82226562 50.57617188 C-301.6703818 49.5853728 -300.5217999 48.5907188 -299.37695312 47.59179688 C-296.91810243 45.47688358 -295.11062707 44.03687569 -292 43 C-292 104.38 -292 165.76 -292 229 C-171.24047099 232.59573155 -171.24047099 232.59573155 -57 189 C-56.16831299 188.3817334 -56.16831299 188.3817334 -55.31982422 187.75097656 C-20.74299732 161.9619948 -4.00791059 125.37279031 2.25390625 83.44140625 C3.16555186 76.9538046 3.8442782 70.55385659 4 64 C4.02046387 63.15566406 4.04092773 62.31132812 4.06201172 61.44140625 C4.43014891 43.69780209 3.82644931 25.8934673 0.3671875 8.4375 C-0.06028224 5.59982855 -0.05830693 2.86536931 0 0 Z " fill="#F9B62A" transform="translate(422,280)"/>
<path d="M0 0 C36.3 0 72.6 0 110 0 C110.30108858 61.62681031 110.30108858 61.62681031 110.38475037 80.93083191 C110.38771037 81.61292166 110.39067038 82.29501142 110.39372008 82.99777056 C110.49311067 105.96288552 110.57186478 128.92802295 110.63514709 151.89326477 C110.63721795 152.64286014 110.63928881 153.39245551 110.64142242 154.16476589 C110.6863181 170.45626946 110.72787054 186.74777996 110.76597994 203.03930078 C110.78468967 211.0288876 110.80413802 219.01847255 110.82397461 227.00805664 C110.825936 227.80310793 110.82789738 228.59815922 110.8299182 229.41730297 C110.89381616 255.17816473 111.0064683 280.93853233 111.14445831 306.69909483 C111.28602678 333.17584586 111.3782998 359.65232352 111.40872485 386.12944664 C111.41304705 389.87082719 111.4179316 393.61220681 111.42315865 397.3535862 C111.42467566 398.45810026 111.42467566 398.45810026 111.42622333 399.58492773 C111.44393583 411.42883148 111.51346848 423.27188889 111.60248051 435.11544775 C111.69090255 447.02813235 111.72449247 458.93997969 111.70252066 470.85298081 C111.69290868 477.30603864 111.7076736 483.75661701 111.78808212 490.20923424 C111.86121068 496.12086423 111.86469696 502.02835426 111.81348342 507.94017694 C111.80715706 510.07506718 111.82609325 512.21021815 111.87324774 514.34459694 C112.22142601 531.08161905 112.22142601 531.08161905 106.72015297 537.08529818 C103.62293687 539.97857557 100.3186529 542.45732248 96.79089613 544.79934297 C94.36262004 546.42731386 92.12707347 548.26384769 89.875 550.125 C89.09769531 550.73730469 88.32039062 551.34960938 87.51953125 551.98046875 C84.48623989 554.41180462 81.52304897 556.91848936 78.5625 559.4375 C73.69438136 563.57958405 68.77452164 567.64926114 63.81640625 571.68359375 C60.66214808 574.27787266 57.5479702 576.91606265 54.4375 579.5625 C49.88715684 583.43241802 45.27167165 587.19959897 40.58984375 590.91015625 C36.96949055 593.8315574 33.43220865 596.84708846 29.88891602 599.86108398 C25.56394995 603.53562191 21.18751857 607.14189669 16.78125 610.71875 C14.7439474 612.38979595 12.72563815 614.07445727 10.71875 615.78125 C10.17162354 616.2445874 9.62449707 616.7079248 9.06079102 617.18530273 C7.51544499 618.4963716 5.97440179 619.81250718 4.43359375 621.12890625 C2 623 2 623 0 623 C0 417.41 0 211.82 0 0 Z " fill="#E3423D" transform="translate(679,58)"/>
<path d="M0 0 C0.54805298 1.20885864 0.54805298 1.20885864 1.10717773 2.44213867 C8.86639239 19.55038384 16.6603255 36.64208736 24.51095581 53.70858765 C30.02059946 65.68608062 35.51164178 77.67189507 40.98846436 89.66442871 C46.51982919 101.77522801 52.07689779 113.87406605 57.6411438 125.9697876 C62.910725 137.42729652 68.14213314 148.90154446 73.34988403 160.38726807 C78.51776212 171.78087675 83.7487359 183.14460987 89 194.5 C94.56042667 206.52392659 100.09203697 218.55986332 105.5625 230.625 C110.82150559 242.223477 116.11527488 253.80539058 121.4375 265.375 C126.97359259 277.40973868 132.49686989 289.45015105 138 301.5 C143.48407279 313.50735056 148.9853807 325.50664846 154.5 337.5 C160.03381171 349.5357529 165.55674622 361.57638446 171.0625 373.625 C171.39105988 374.34399475 171.71961975 375.0629895 172.05813599 375.80377197 C174.70261258 381.59113505 177.34614061 387.37893127 179.98962402 393.16674805 C182.30513417 398.23637034 184.62102928 403.30581654 186.9375 408.375 C187.26597931 409.09383362 187.59445862 409.81266724 187.93289185 410.55328369 C192.7533356 421.10068787 197.58841036 431.64129969 202.43264771 442.17779541 C203.49204392 444.48269021 204.55071236 446.78791781 205.60913086 449.09326172 C206.3123146 450.62468487 207.015521 452.15609763 207.71875 453.6875 C208.06696304 454.44580109 208.41517609 455.20410217 208.77394104 455.98538208 C210.99074802 460.81038276 213.21532125 465.63173385 215.44445801 470.4510498 C216.94156545 473.68998571 218.43442484 476.93086874 219.92651367 480.17211914 C220.63567837 481.7099598 221.34674402 483.24692544 222.05981445 484.78295898 C223.0447822 486.90516567 224.02310593 489.03031742 225 491.15625 C225.29080444 491.77846436 225.58160889 492.40067871 225.88122559 493.04174805 C227.387603 496.33912953 228.45879598 499.41114085 229 503 C222.97774116 501.02269168 216.96834006 499.04071366 211.046875 496.77734375 C206.71724175 495.13307463 202.35397906 493.57839186 198 492 C196.16659096 491.33354155 194.33325697 490.66687664 192.5 490 C191.5925 489.67 190.685 489.34 189.75 489 C16.5 426 16.5 426 13.77734375 425.0078125 C11.85466208 424.31013055 9.93004315 423.61777291 8.00390625 422.9296875 C7.03324219 422.58164062 6.06257813 422.23359375 5.0625 421.875 C3.74958984 421.40707031 3.74958984 421.40707031 2.41015625 420.9296875 C0.19018999 420.0733634 -1.89423811 419.10418141 -4 418 C-4 417.67 -4 417.34 -4 417 C16.46 417 36.92 417 58 417 C56.040625 412.689375 54.08125 408.37875 52.0625 403.9375 C46.17884778 390.94245484 40.43416136 377.89077318 34.75134277 364.80682373 C28.98731984 351.53684513 23.16851888 338.29213493 17.3125 325.0625 C11.83116184 312.67664425 6.35932621 300.28703624 0.9375 287.875 C0.66245636 287.24537354 0.38741272 286.61574707 0.10403442 285.96704102 C-0.30989059 285.01945923 -0.30989059 285.01945923 -0.73217773 284.05273438 C-1.29670138 282.76041192 -1.86123599 281.46809426 -2.42578125 280.17578125 C-2.70866501 279.52819855 -2.99154877 278.88061584 -3.28300476 278.21340942 C-7.09429015 269.49159671 -10.92277284 260.77732574 -14.75 252.0625 C-15.12843048 251.20074158 -15.50686096 250.33898315 -15.89675903 249.45111084 C-17.8262354 245.05736121 -19.75585006 240.66367234 -21.68554688 236.27001953 C-25.0842149 228.53152763 -28.48158217 220.79246468 -31.87902832 213.05343628 C-33.75263044 208.78559999 -35.62631969 204.51780196 -37.5 200.25 C-38.25000042 198.54166685 -39.00000042 196.83333352 -39.75 195.125 C-40.12125 194.279375 -40.4925 193.43375 -40.875 192.5625 C-44.25000001 184.87499998 -44.25000001 184.87499998 -45.37492371 182.31266785 C-46.1251722 180.60377247 -46.87542651 178.89487965 -47.62568665 177.18598938 C-49.49693247 172.92377627 -51.3680781 168.66151923 -53.23901367 164.39916992 C-57.43812575 154.83312438 -61.63971454 145.26817413 -65.84474182 135.70472717 C-67.75241393 131.36526147 -69.65824088 127.02500326 -71.55981445 122.68286133 C-71.92458389 121.84997086 -72.28935333 121.01708038 -72.66517639 120.15895081 C-73.38915046 118.50585293 -74.11305875 116.85272626 -74.8368988 115.1995697 C-76.89969324 110.4934445 -78.97810494 105.7946749 -81.07228088 101.10243225 C-82.32679979 98.28796312 -83.57271902 95.4697403 -84.81698608 92.65072632 C-85.39082225 91.35658243 -85.96871592 90.06422899 -86.55093384 88.77383423 C-87.3398997 87.02443604 -88.11374779 85.26824289 -88.88671875 83.51171875 C-89.32201904 82.53678467 -89.75731934 81.56185059 -90.20581055 80.55737305 C-91.06225719 77.79952534 -91.10840657 76.63278101 -90 74 C-88.1015625 71.95703125 -88.1015625 71.95703125 -85.625 69.8125 C-84.26181641 68.62720703 -84.26181641 68.62720703 -82.87109375 67.41796875 C-79.24722355 64.36602908 -75.5914753 61.35733442 -71.91015625 58.375 C-68.78570211 55.82510991 -65.70027196 53.23376456 -62.625 50.625 C-62.08270752 50.16512695 -61.54041504 49.70525391 -60.98168945 49.23144531 C-59.32052232 47.82167288 -57.66012031 46.41100496 -56 45 C-49.89111965 39.80780978 -43.78489359 34.61876419 -37.5625 29.5625 C-33.31607452 26.10725714 -29.14706799 22.57298808 -25 19 C-19.07898458 13.89932729 -13.08366658 8.90650183 -7 4 C-6.11441406 3.2575 -5.22882812 2.515 -4.31640625 1.75 C-2 0 -2 0 0 0 Z " fill="#F9B62A" transform="translate(2165,266)"/>
<path d="M0 0 C3.36551966 0.67310393 6.06869707 1.28884444 9.20874023 2.44848633 C10.4215567 2.89332619 10.4215567 2.89332619 11.65887451 3.34715271 C12.53328186 3.67216263 13.40768921 3.99717255 14.30859375 4.33203125 C15.24125061 4.67537003 16.17390747 5.0187088 17.13482666 5.37245178 C20.23705246 6.51555186 23.33727243 7.66399261 26.4375 8.8125 C28.63832037 9.62480268 30.83925025 10.43680869 33.0402832 11.24853516 C38.86036734 13.39619083 44.67865058 15.54868097 50.49633789 17.70281982 C53.90680758 18.96549686 57.31760102 20.22729492 60.72851562 21.48876953 C74.1876888 26.46676904 87.6439959 31.4524771 101.09912109 36.44140625 C112.7319849 40.75466194 124.36585003 45.06521485 136 49.375 C137.1211319 49.79033997 138.24226379 50.20567993 139.39736938 50.63360596 C159.58928763 58.1134264 179.79069361 65.56729537 200 73 C200 73.33 200 73.66 200 74 C170.3 74 140.6 74 110 74 C110 216.23 110 358.46 110 505 C73.7 505 37.4 505 0 505 C0 338.35 0 171.7 0 0 Z " fill="#117882" transform="translate(20,537)"/>
<path d="M0 0 C0.99 0.495 0.99 0.495 2 1 C2.7103452 4.004039 3.29238083 6.95727926 3.8125 9.99609375 C3.9821376 10.94612274 4.15177521 11.89615173 4.32655334 12.87496948 C4.89299449 16.06101915 5.4465241 19.24917443 6 22.4375 C6.39705326 24.68720824 6.79477087 26.93679931 7.19311523 29.1862793 C8.47635706 36.45505385 9.74028164 43.72711622 11 51 C11.21005676 52.21216187 11.42011353 53.42432373 11.63653564 54.67321777 C13.54108925 65.6704138 15.4380875 76.66890232 17.32470703 87.66918945 C20.11630477 103.93926306 22.97135384 120.1968838 25.8800354 136.44641113 C27.89986499 147.73251297 29.85955223 159.02396507 31.70239258 170.34057617 C32.83776374 177.23130267 34.16936653 184.07212187 35.5690918 190.91357422 C37.06016088 198.21029525 38.36618495 205.53128312 39.62792969 212.87060547 C40.02378117 215.13610194 40.4360323 217.39818992 40.8515625 219.66015625 C40.99134521 220.4281958 41.13112793 221.19623535 41.27514648 221.98754883 C41.54220845 223.45283199 41.81235641 224.91755744 42.08618164 226.3815918 C42.7364011 229.9798809 43.05523494 233.3505763 43 237 C44.08945577 236.98650041 45.17891153 236.97300081 46.30138111 236.95909214 C109.30176235 236.18733905 172.28874043 235.90839584 235.29296875 236.12109375 C236.52783287 236.12524043 236.52783287 236.12524043 237.78764373 236.12947088 C258.78795928 236.20029315 279.78821447 236.28435327 300.7884599 236.37335551 C312.95523436 236.42479139 325.12201968 236.472487 337.28881836 236.51782227 C338.59660755 236.52269684 338.59660755 236.52269684 339.93081673 236.5276699 C344.30988311 236.54397366 348.6889497 236.56021843 353.06801641 236.57643402 C388.71204936 236.70849772 424.3560357 236.85058279 460 237 C460 237.33 460 237.66 460 238 C310.84 238 161.68 238 8 238 C7.67 239.65 7.34 241.3 7 243 C5.89176184 245.62144047 4.74465346 248.18437908 3.52734375 250.75390625 C3.17302277 251.51395462 2.81870178 252.27400299 2.4536438 253.05708313 C1.6874614 254.69995601 0.91898498 256.34176057 0.14846802 257.98260498 C-1.92649302 262.40318551 -3.98298133 266.83233231 -6.0390625 271.26171875 C-6.45931198 272.16645935 -6.87956146 273.07119995 -7.31254578 274.00335693 C-11.28854996 282.58317315 -15.12582226 291.22124827 -18.9375 299.875 C-25.03321927 313.69938821 -31.33537276 327.4191694 -37.71798706 341.11322021 C-43.26649526 353.0238785 -48.69955747 364.9769717 -54 377 C-60.48560017 391.70773936 -67.19471276 406.30366948 -73.97753906 420.87646484 C-79.98213111 433.77973164 -85.90530721 446.71781926 -91.76490784 459.68754578 C-95.45159981 467.82258744 -99.22183504 475.90393222 -103 484 C-146.89 484 -190.78 484 -236 484 C-234.12629798 478.37889393 -232.45452519 473.52094311 -229.953125 468.28125 C-229.52173721 467.37062553 -229.52173721 467.37062553 -229.08163452 466.44160461 C-228.46402893 465.13866421 -227.84425602 463.83674924 -227.22247314 462.53579712 C-225.52452577 458.98127595 -223.8449753 455.41806909 -222.1640625 451.85546875 C-221.81656952 451.11979172 -221.46907654 450.38411469 -221.11105347 449.62614441 C-217.54143136 442.05513702 -214.07525101 434.43847423 -210.625 426.8125 C-209.37672481 424.05579796 -208.12798718 421.29930579 -206.87890625 418.54296875 C-206.5647728 417.84969482 -206.25063934 417.1564209 -205.92698669 416.44213867 C-202.16892296 408.15594893 -198.36560129 399.89058951 -194.5625 391.625 C-189.02615142 379.5903799 -183.50302012 367.54989809 -178 355.5 C-172.13958289 342.66751395 -166.25458049 329.84651117 -160.3588562 317.0302124 C-155.089275 305.57270348 -149.85786686 294.09845554 -144.65011597 282.61273193 C-139.10351509 270.38415401 -133.48161198 258.19108609 -127.84552002 246.00354004 C-122.67071082 234.81142792 -117.52934745 223.60509791 -112.4375 212.375 C-107.17849441 200.776523 -101.88472512 189.19460942 -96.5625 177.625 C-91.02640741 165.59026132 -85.50313011 153.54984895 -80 141.5 C-74.51592697 129.4926489 -69.0144319 117.49343803 -63.5 105.5 C-58.60188349 94.84523767 -53.70461832 84.19009199 -48.82763672 73.52563477 C-47.49496364 70.61207874 -46.15626598 67.70140552 -44.81298828 64.79272461 C-41.54123347 57.69002383 -38.37257409 50.56451291 -35.37890625 43.33984375 C-24.68853569 17.76914982 -24.68853569 17.76914982 -12.66943359 10.10449219 C-9.8029531 8.20803741 -7.25226005 5.96349182 -4.625 3.75 C-3.08474283 2.49826362 -1.54366403 1.24753256 0 0 Z " fill="#66615C" transform="translate(1815,558)"/>
<path d="M0 0 C3 1 3 1 4.46362305 3.58740234 C4.97449463 4.74191895 5.48536621 5.89643555 6.01171875 7.0859375 C6.4390052 8.03870071 6.4390052 8.03870071 6.87492371 9.01071167 C7.82206155 11.1279969 8.75445864 13.2514697 9.6875 15.375 C10.3550938 16.8726008 11.0238977 18.36966268 11.69384766 19.86621094 C13.09747273 23.00316832 14.4966209 26.14206707 15.89306641 29.28222656 C18.84558994 35.90838673 21.86564072 42.50346072 24.88858032 49.09771729 C25.88544583 51.27279189 26.88079556 53.44855429 27.87573242 55.62451172 C33.09301348 67.03298945 38.33087181 78.43198881 43.57119751 89.82989502 C48.74757724 101.0891812 53.91201545 112.35384428 59.0625 123.625 C59.55533981 124.70349213 59.55533981 124.70349213 60.05813599 125.80377197 C62.70261258 131.59113505 65.34614061 137.37893127 67.98962402 143.16674805 C70.30513417 148.23637034 72.62103247 153.30581508 74.9375 158.375 C75.26066193 159.08220184 75.58382385 159.78940369 75.91677856 160.51803589 C83.9176023 178.02437848 91.95742464 195.51280839 100 213 C97.34422666 215.68224658 94.70553188 218.34315019 91.8359375 220.796875 C91.27704834 221.27584229 90.71815918 221.75480957 90.14233398 222.24829102 C89.55911377 222.74385498 88.97589355 223.23941895 88.375 223.75 C87.75890869 224.27585693 87.14281738 224.80171387 86.50805664 225.34350586 C81.98106123 229.19575697 77.39630759 232.97240914 72.78125 236.71875 C69.63616205 239.29842888 66.53520324 241.92631983 63.4375 244.5625 C58.88720681 248.43247486 54.27166922 252.19960089 49.58984375 255.91015625 C45.96869031 258.83220315 42.43045431 261.84821486 38.88671875 264.86328125 C35.45428391 267.78004513 31.99407185 270.65693426 28.5 273.5 C22.25914465 278.57933722 16.12906056 283.78688808 10 289 C7.25945632 285.67513619 5.57623951 282.16942114 3.8125 278.25 C3.28269531 277.07953125 2.75289062 275.9090625 2.20703125 274.703125 C1.80871094 273.81109375 1.41039063 272.9190625 1 272 C0.5467334 273.05388916 0.0934668 274.10777832 -0.37353516 275.19360352 C-2.07192141 279.13336519 -3.78671726 283.06580807 -5.50634766 286.99633789 C-6.2458122 288.69265213 -6.98091969 290.39087309 -7.71142578 292.09106445 C-8.7673262 294.54642907 -9.83914317 296.99431824 -10.9140625 299.44140625 C-11.23307526 300.19273331 -11.55208801 300.94406036 -11.88076782 301.71815491 C-15.00845808 308.76025837 -19.4181141 314.0909526 -25.5625 318.75 C-29.60633193 321.8891308 -33.54383544 325.11621388 -37.4375 328.4375 C-42.22599594 332.51046558 -47.05618984 336.52483254 -51.9296875 340.49609375 C-61.50861889 348.30791948 -71.05229952 356.15972837 -80.46826172 364.16748047 C-84.66188996 367.72910195 -88.91608422 371.21119517 -93.18359375 374.68359375 C-96.33785192 377.27787266 -99.4520298 379.91606265 -102.5625 382.5625 C-107.11284316 386.43241802 -111.72832835 390.19959897 -116.41015625 393.91015625 C-119.46081975 396.37185304 -122.45144946 398.89813682 -125.4375 401.4375 C-130.22667258 405.50968486 -135.05616963 409.52481607 -139.9296875 413.49609375 C-149.51151921 421.31028475 -159.05570308 429.16693174 -168.47705078 437.17407227 C-172.58856592 440.66416897 -176.74901309 444.08939259 -180.9296875 447.49609375 C-184.75219429 450.61343071 -188.56518697 453.74216857 -192.375 456.875 C-193.46143799 457.76735352 -193.46143799 457.76735352 -194.56982422 458.67773438 C-198.0298634 461.5263579 -201.47304337 464.3907482 -204.875 467.30859375 C-205.46877441 467.81729004 -206.06254883 468.32598633 -206.67431641 468.85009766 C-207.77909961 469.80009068 -208.8805443 470.75398508 -209.97802734 471.71240234 C-212.33536505 473.74062869 -214.01125893 475.00375298 -217 476 C-215.09353639 469.88261552 -212.81533533 464.10225631 -210.078125 458.3125 C-209.70156769 457.50524475 -209.32501038 456.6979895 -208.93704224 455.86627197 C-208.13091676 454.13924013 -207.32264429 452.41320904 -206.51239014 450.68811035 C-204.34983078 446.08319622 -202.2035212 441.47070559 -200.0546875 436.859375 C-199.6219754 435.93195496 -199.18926331 435.00453491 -198.74343872 434.04901123 C-194.90067878 425.80659857 -191.12488338 417.53499166 -187.375 409.25 C-186.16330276 406.57527479 -184.95102484 403.90081344 -183.73828125 401.2265625 C-183.43667587 400.56147675 -183.1350705 399.89639099 -182.82432556 399.21115112 C-179.09845567 391.00289703 -175.32996791 382.81422162 -171.5625 374.625 C-166.02631441 362.59030425 -160.50312998 350.54984868 -155 338.5 C-149.51592721 326.49264944 -144.0146193 314.49335154 -138.5 302.5 C-132.96618829 290.4642471 -127.44325378 278.42361554 -121.9375 266.375 C-121.44466019 265.29650787 -121.44466019 265.29650787 -120.94186401 264.19622803 C-118.62738604 259.13105769 -116.31360874 254.06556742 -114 249 C-111.35465606 243.20810967 -108.70898807 237.41636765 -106.0625 231.625 C-105.73402069 230.90616638 -105.40554138 230.18733276 -105.06710815 229.44671631 C-99.53714937 217.34685302 -93.98591808 205.25683989 -88.42852783 193.16955566 C-83.25224341 181.91045094 -78.08789947 170.64596954 -72.9375 159.375 C-72.60894012 158.65600525 -72.28038025 157.9370105 -71.94186401 157.19622803 C-69.62738604 152.13105769 -67.31360874 147.06556742 -65 142 C-62.35465606 136.20810967 -59.70898807 130.41636765 -57.0625 124.625 C-56.73402069 123.90616638 -56.40554138 123.18733276 -56.06710815 122.44671631 C-50.53714937 110.34685302 -44.98591808 98.25683989 -39.42852783 86.16955566 C-32.61348796 71.34594062 -25.82537562 56.5101241 -19.04684448 41.66978455 C-15.39540531 33.67567318 -11.74115465 25.68284748 -8.08694458 17.69000244 C-6.37037409 13.93530271 -4.65394001 10.18054063 -2.9375 6.42578125 C-2.36328194 5.16967742 -1.78906326 3.91357387 -1.21484375 2.6574707 C-0.81394531 1.78050537 -0.41304687 0.90354004 0 0 Z " fill="#F9B62A" transform="translate(2048,16)"/>
<path d="M0 0 C0.33 0.66 0.66 1.32 1 2 C0.03595903 4.52453065 -0.99662281 6.93390964 -2.12890625 9.3828125 C-2.63954117 10.51229561 -2.63954117 10.51229561 -3.16049194 11.66459656 C-3.89947948 13.2970365 -4.64202405 14.92786975 -5.38766479 16.55728149 C-6.97635995 20.02953185 -8.54782985 23.50948202 -10.12019348 26.989151 C-10.92385033 28.76732007 -11.72837268 30.54509821 -12.53373718 32.32249451 C-16.0668962 40.12445034 -19.51871911 47.95989079 -22.9375 55.8125 C-23.50030273 57.10315415 -24.06321085 58.39376236 -24.6262207 59.68432617 C-25.49496336 61.67575449 -26.36365145 63.66720623 -27.23194885 65.65882874 C-31.05515192 74.42546344 -34.90378353 83.18094477 -38.75 91.9375 C-39.51555771 93.68073925 -40.28110128 95.42398472 -41.04663086 97.16723633 C-42.59285004 100.68818889 -44.13916778 104.20909814 -45.68554688 107.72998047 C-49.0842149 115.46847237 -52.48158217 123.20753532 -55.87902832 130.94656372 C-57.75263044 135.21440001 -59.62631969 139.48219804 -61.5 143.75 C-62.25000042 145.45833315 -63.00000042 147.16666648 -63.75 148.875 C-65.25 152.29166667 -66.75 155.70833333 -68.25 159.125 C-68.62124496 159.97061493 -68.99248993 160.81622986 -69.37498474 161.68746948 C-70.12503144 163.39590637 -70.87508231 165.10434143 -71.62513733 166.81277466 C-73.49945689 171.08200869 -75.3737043 175.35127437 -77.24780273 179.62060547 C-80.63014934 187.32564292 -84.0129909 195.03046089 -87.39859009 202.73406982 C-88.92251194 206.20173574 -90.44600762 209.66958883 -91.96948242 213.13745117 C-92.66458813 214.71941054 -93.35987966 216.30128828 -94.05541992 217.88305664 C-102.41802556 236.90127452 -110.69831466 255.95495716 -119 275 C-43.43 275.33 32.14 275.66 110 276 C104.36734694 281.63265306 104.36734694 281.63265306 101.6171875 284.015625 C101.01310059 284.53979004 100.40901367 285.06395508 99.78662109 285.60400391 C99.15578613 286.14718262 98.52495117 286.69036133 97.875 287.25 C97.21193848 287.82282715 96.54887695 288.3956543 95.86572266 288.98583984 C91.21596881 292.98882764 86.5006109 296.90187164 81.734375 300.765625 C78.66979421 303.2698253 75.6433778 305.81547298 72.625 308.375 C71.81095703 309.06529297 71.81095703 309.06529297 70.98046875 309.76953125 C69.31972826 311.17900132 67.65972338 312.58933242 66 314 C59.89111965 319.19219022 53.78489359 324.38123581 47.5625 329.4375 C42.69870975 333.39508188 37.94118769 337.46542446 33.19165039 341.55834961 C28.8019965 345.33334391 24.33885229 349.00728461 19.84375 352.65625 C16.52313406 355.39302138 13.25956291 358.19106385 10 361 C4.99871679 365.30912021 -0.05975974 369.53274785 -5.1875 373.69140625 C-9.09025802 376.89492012 -12.93124844 380.17002003 -16.76196289 383.45922852 C-20.63027765 386.7605478 -22.51152042 388.12581152 -27.56838989 388.12025452 C-28.53035278 388.12162918 -29.49231567 388.12300385 -30.48342896 388.12442017 C-32.07161942 388.11902725 -32.07161942 388.11902725 -33.69189453 388.11352539 C-35.36019318 388.11374443 -35.36019318 388.11374443 -37.06219482 388.1139679 C-40.7524203 388.1132691 -44.4425958 388.10547824 -48.1328125 388.09765625 C-50.68586194 388.09579195 -53.23891174 388.0943681 -55.79196167 388.09336853 C-61.83386916 388.08993553 -67.87575508 388.08204747 -73.91765392 388.07201904 C-80.79543876 388.06085045 -87.67322445 388.05534557 -94.55101609 388.05032361 C-108.7006874 388.03986466 -122.85034271 388.02226986 -137 388 C-137.19988525 386.93201172 -137.39977051 385.86402344 -137.60571289 384.76367188 C-137.87385243 383.33202971 -138.14200068 381.90038917 -138.41015625 380.46875 C-138.54119751 379.7684668 -138.67223877 379.06818359 -138.80725098 378.34667969 C-139.67242744 373.72885029 -140.55064392 369.11371522 -141.4375 364.5 C-142.71689615 357.76808298 -143.83170436 351.01232461 -144.9375 344.25 C-146.1329964 336.94576701 -147.4273746 329.68307412 -148.9375 322.4375 C-150.61659214 314.32611777 -151.9651211 306.1824285 -153.25 298 C-155.21160818 285.52672212 -157.40076244 273.10507368 -159.6875 260.6875 C-163.40852388 240.46255831 -166.93149025 220.20602225 -170.41088867 199.93823242 C-170.60955032 198.78390213 -170.80821198 197.62957184 -171.01289368 196.44026184 C-171.40581253 194.140996 -171.7936372 191.84085342 -172.17619324 189.5398407 C-173.09839556 184.030298 -174.07268575 178.54567374 -175.22141933 173.07818317 C-175.63726497 171.0872719 -176.03727261 169.09379916 -176.43269348 167.09873962 C-176.93671294 164.5808671 -177.47048545 162.06870842 -178.03837585 159.56446838 C-179.64331168 151.32166176 -179.64331168 151.32166176 -177.81074524 147.55671692 C-175.10504473 144.20220486 -172.00109812 141.47152979 -168.19140625 139.42578125 C-164.62004019 137.38762993 -161.56356031 135.12977819 -158.4375 132.4375 C-157.13619141 131.38369141 -157.13619141 131.38369141 -155.80859375 130.30859375 C-152.49701407 127.58655815 -149.2469 124.79856861 -146 122 C-140.98413025 117.67821817 -135.9082451 113.44520648 -130.76953125 109.26953125 C-125.45558334 104.91494206 -120.23473234 100.44921565 -115 96 C-108.89111965 90.80780978 -102.78489359 85.61876419 -96.5625 80.5625 C-91.69870975 76.60491812 -86.94118769 72.53457554 -82.19165039 68.44165039 C-77.8019965 64.66665609 -73.33885229 60.99271539 -68.84375 57.34375 C-65.52313514 54.60697951 -62.25953218 51.8089705 -59 49 C-54.01059233 44.70027287 -48.95778844 40.49514591 -43.84375 36.34375 C-40.52313514 33.60697951 -37.25953218 30.8089705 -34 28 C-29.02245128 23.71049258 -23.98340972 19.51337539 -18.87890625 15.375 C-14.72623518 11.94918724 -10.65570421 8.42917972 -6.59375 4.89648438 C-2.21221128 1.10610564 -2.21221128 1.10610564 0 0 Z " fill="#E3423D" transform="translate(1995,407)"/>
<path d="M0 0 C0 131.67 0 263.34 0 399 C-36.3 399 -72.6 399 -110 399 C-110.28670238 359.94977895 -110.52669061 320.90055205 -110.66384928 281.84957938 C-110.68010808 277.23720145 -110.6969343 272.62482576 -110.71411133 268.01245117 C-110.71752136 267.09422724 -110.7209314 266.1760033 -110.72444477 265.2299544 C-110.78098137 250.37049344 -110.88346268 235.51168764 -111.00298635 220.65261509 C-111.12464391 205.40082549 -111.1967822 190.14937852 -111.22315043 174.89712363 C-111.24097105 165.48850353 -111.29720619 156.08173523 -111.40291407 146.67368535 C-111.47174209 140.21832531 -111.49237785 133.76391961 -111.47551791 127.30821946 C-111.46720574 123.58517286 -111.47974996 119.86535599 -111.54967117 116.14288712 C-111.96904671 92.66897545 -111.96904671 92.66897545 -107.19782066 86.898386 C-104.10607954 83.95317039 -100.74098049 82.02841412 -97 80 C-95.15812316 78.55757843 -93.33988602 77.0836802 -91.5625 75.5625 C-90.67691406 74.84191406 -89.79132812 74.12132812 -88.87890625 73.37890625 C-85.5491853 70.62748148 -82.27223378 67.81930496 -79 65 C-73.98680512 60.68071044 -68.9146268 56.44902881 -63.77734375 52.27734375 C-60.65603733 49.71796028 -57.57546576 47.11410084 -54.5 44.5 C-50.55349519 41.14552873 -46.58357928 37.82778171 -42.5625 34.5625 C-38.31607242 31.10725543 -34.14711576 27.57293424 -30 24 C-24.9525236 19.65287805 -19.85712492 15.37693567 -14.68359375 11.1796875 C-12.75126082 9.61019438 -10.82722362 8.03321062 -8.91015625 6.4453125 C-7.90855469 5.61773438 -6.90695312 4.79015625 -5.875 3.9375 C-4.96492187 3.18339844 -4.05484375 2.42929687 -3.1171875 1.65234375 C-1 0 -1 0 0 0 Z " fill="#66615B" transform="translate(789,643)"/>
<path d="M0 0 C70.5604971 1.50931545 147.11496914 19.69618083 199.51171875 69.62890625 C201.61809341 71.63607959 203.76611653 73.51418872 206 75.375 C254.33412536 117.50474488 279.9594433 185.82879294 285.81542969 248.1171875 C286.13301237 253.07752647 286.08847366 258.03236773 286 263 C274.4801912 259.69840969 263.34222728 255.57127612 252.25 251.0625 C245.01322024 248.12348268 237.73503649 245.49077537 230.30664062 243.08056641 C224.84636977 241.30464127 219.49645582 239.32135147 214.15234375 237.21875 C210.72653536 235.89427389 207.27584024 234.66029397 203.8125 233.4375 C199.84048815 232.03174939 195.90179494 230.59009319 192 229 C187.88551307 227.32955938 183.73625715 225.76539491 179.5625 224.25 C178.38816406 223.82203125 177.21382812 223.3940625 176.00390625 222.953125 C173.04866379 221.84878193 173.04866379 221.84878193 170 222 C169.64808594 220.741875 169.29617188 219.48375 168.93359375 218.1875 C162.85846054 196.93079679 154.72755293 177.79502569 140 161 C139.34902344 160.19304687 138.69804687 159.38609375 138.02734375 158.5546875 C111.87451517 127.21160585 68.28640496 115.33040703 29.87597656 108.52099609 C25.57171789 107.74126027 21.28527841 106.87737125 17 106 C13.29548697 85.45342554 9.80111203 64.87993599 6.48193359 44.26757812 C4.77282829 33.6659815 3.02911969 23.0750874 1.06591797 12.5168457 C0.2979028 8.27903241 -0.17434536 4.33073881 0 0 Z " fill="#127881" transform="translate(251,59)"/>
<path d="M0 0 C28.80817195 13.31470132 55.51032324 32.60521315 78.8359375 54.01953125 C80.89991208 55.90840329 83.00290254 57.7394626 85.125 59.5625 C91.96196878 65.53281077 98.1825354 72.03921865 104 79 C104.42265137 79.50354004 104.84530273 80.00708008 105.28076172 80.52587891 C138.66594849 120.53464955 162.51039401 172.34242811 164 225 C163.36352539 224.76627686 162.72705078 224.53255371 162.07128906 224.29174805 C158.79767603 223.089923 155.52386034 221.88865122 152.25 220.6875 C151.60920502 220.45235687 150.96841003 220.21721375 150.30819702 219.97494507 C140.85628412 216.50702642 131.40034771 213.05026458 121.94140625 209.6015625 C96.58799292 200.35610135 71.24175045 191.09400034 45.98124695 181.5970459 C41.58311539 179.94872947 37.17455233 178.33936439 32.74282837 176.78361511 C30.86983116 176.12448725 29.00146525 175.45224421 27.13330078 174.77954102 C24.9861181 174.00715643 22.83141962 173.25511824 20.66748047 172.53100586 C13.49670529 169.90820537 10.20715836 166.25455676 6 160 C3.10036154 156.57042761 0.06731689 153.28005015 -3 150 C-3.79921875 149.13503906 -4.5984375 148.27007813 -5.421875 147.37890625 C-30.90539593 120.77565486 -67.28405625 100.94656726 -101 87 C-99.76145489 83.28436466 -98.30982822 82.40541409 -95.25 80 C-94.25097656 79.20335937 -93.25195312 78.40671875 -92.22265625 77.5859375 C-91.6930127 77.1640918 -91.16336914 76.74224609 -90.61767578 76.30761719 C-87.92848877 74.13386445 -85.31311416 71.87472666 -82.6875 69.625 C-78.2522303 65.84123884 -73.733949 62.19463812 -69.125 58.625 C-63.37679587 54.16720904 -57.86456513 49.48260576 -52.390625 44.69360352 C-47.99608121 40.85123278 -43.53422646 37.11090538 -39 33.43359375 C-35.1949349 30.34693287 -31.40847067 27.23807208 -27.625 24.125 C-26.53614502 23.22914185 -26.53614502 23.22914185 -25.42529297 22.31518555 C-19.81931647 17.69411053 -14.26349808 13.01733386 -8.734375 8.3046875 C-6.9194802 6.77499045 -5.07529587 5.27935069 -3.203125 3.8203125 C-0.92571271 2.18864485 -0.92571271 2.18864485 0 0 Z " fill="#F9B62A" transform="translate(1384,495)"/>
<path d="M0 0 C2.61468443 3.19863547 4.25694625 6.4735145 5.94140625 10.23828125 C6.36062599 11.16854378 6.36062599 11.16854378 6.78831482 12.11759949 C7.39654606 13.46840372 8.00258628 14.82019615 8.60668945 16.17285156 C10.27042218 19.89723308 11.95087752 23.61407469 13.62890625 27.33203125 C13.98272369 28.11712067 14.33654114 28.90221008 14.70108032 29.71109009 C18.37012385 37.84302045 22.11151899 45.94105069 25.85961914 54.03677368 C31.80527592 66.87941141 37.71840586 79.73581782 43.5625 92.625 C48.82150583 104.22347754 54.11536422 115.80534916 59.4375 127.375 C64.99269954 139.45217752 70.5377547 151.53385745 76.0625 163.625 C76.38930756 164.34015778 76.71611511 165.05531555 77.05282593 165.79214478 C80.05620541 172.36473099 83.05835977 178.93787655 86.06005859 185.51123047 C87.78357079 189.28549791 89.50765392 193.05950425 91.23190308 196.83343506 C92.23729699 199.0346875 93.24185429 201.23632032 94.24633789 203.43798828 C97.36161384 210.26163606 100.49381068 217.07643737 103.671875 223.87109375 C104.24191578 225.09299248 104.81190425 226.31491561 105.38183594 227.53686523 C106.43219474 229.78480423 107.48726199 232.03055143 108.54785156 234.27368164 C109.23572754 235.74695923 109.23572754 235.74695923 109.9375 237.25 C110.33839844 238.10078125 110.73929688 238.9515625 111.15234375 239.828125 C112 242 112 242 112 245 C68.11 245 24.22 245 -21 245 C-31.10315094 223.10983964 -41.12848283 201.26595443 -50.87109375 179.2265625 C-55.67777996 168.39320703 -60.69727469 157.65895638 -65.70388794 146.91699219 C-72.23179345 132.90357553 -78.59347515 118.82354439 -84.83789062 104.68164062 C-85.14708435 103.9817804 -85.45627808 103.28192017 -85.77484131 102.56085205 C-86.36780539 101.21545355 -86.95858523 99.86908978 -87.54693604 98.52166748 C-88.84894551 95.54882637 -90.19087064 92.61147885 -91.62207031 89.69824219 C-92.3389502 88.23499512 -92.3389502 88.23499512 -93.0703125 86.7421875 C-93.70477295 85.49864502 -93.70477295 85.49864502 -94.35205078 84.22998047 C-95 82 -95 82 -94.25463867 79.8269043 C-92.55717959 77.3552004 -90.54754765 75.7861464 -88.1875 73.9375 C-87.20136719 73.15246094 -86.21523437 72.36742187 -85.19921875 71.55859375 C-84.67634277 71.14335449 -84.1534668 70.72811523 -83.61474609 70.30029297 C-80.86525057 68.0862299 -78.18567071 65.79069562 -75.5 63.5 C-71.55413445 60.14479821 -67.58355567 56.82776253 -63.5625 53.5625 C-58.69870975 49.60491812 -53.94118769 45.53457554 -49.19165039 41.44165039 C-44.8019965 37.66665609 -40.33885229 33.99271539 -35.84375 30.34375 C-31.91365001 27.1046566 -28.06199568 23.77739878 -24.20458984 20.45239258 C-19.69413467 16.5729048 -15.10720065 12.79675327 -10.48828125 9.046875 C-6.92047727 6.11197816 -3.44879703 3.07328331 0 0 Z " fill="#E3423D" transform="translate(2407,797)"/>
<path d="M0 0 C36.3 0 72.6 0 110 0 C110.40303034 41.26582892 110.40303034 41.26582892 110.48828125 58.56835938 C110.54760166 70.5120745 110.61730705 82.4550838 110.75439453 94.39819336 C110.85419163 103.09671203 110.91861113 111.79465773 110.94088495 120.49373299 C110.95390217 125.09851247 110.98440202 129.70165314 111.05730057 134.3059063 C111.12543076 138.64434172 111.14606803 142.98047166 111.13107681 147.31939125 C111.13381704 148.90733268 111.15356729 150.49535503 111.19205475 152.08283234 C111.4679433 164.05445791 111.4679433 164.05445791 107.80028915 168.91539192 C105.30422528 171.18738867 102.79679252 173.11796824 100 175 C99.03449219 175.81210938 98.06898438 176.62421875 97.07421875 177.4609375 C96.28660156 178.09257812 95.49898437 178.72421875 94.6875 179.375 C90.58026015 182.70018431 86.52528104 186.07676305 82.5 189.5 C77.73107822 193.55034575 72.92087005 197.54352572 68.0703125 201.49609375 C58.48848079 209.31028475 48.94429692 217.16693174 39.52294922 225.17407227 C35.41978515 228.65708009 31.26928724 232.076962 27.09375 235.47265625 C24.64778563 237.47081149 22.2118703 239.47939125 19.78125 241.49609375 C19.03391602 242.11508545 18.28658203 242.73407715 17.51660156 243.37182617 C16.04308623 244.59282504 14.57099961 245.81555087 13.10058594 247.0402832 C12.06853027 247.89432739 12.06853027 247.89432739 11.015625 248.765625 C10.41008789 249.26868164 9.80455078 249.77173828 9.18066406 250.29003906 C6.19788734 252.62897414 3.08442281 254.79684085 0 257 C0 172.19 0 87.38 0 0 Z " fill="#117781" transform="translate(679,58)"/>
<path d="M0 0 C3 1 3 1 4.46362305 3.58740234 C5.22993042 5.31917725 5.22993042 5.31917725 6.01171875 7.0859375 C6.29657639 7.72111298 6.58143402 8.35628845 6.87492371 9.01071167 C7.82206155 11.1279969 8.75445864 13.2514697 9.6875 15.375 C10.3550938 16.8726008 11.0238977 18.36966268 11.69384766 19.86621094 C13.09747273 23.00316832 14.4966209 26.14206707 15.89306641 29.28222656 C18.84558994 35.90838673 21.86564072 42.50346072 24.88858032 49.09771729 C25.88544583 51.27279189 26.88079556 53.44855429 27.87573242 55.62451172 C33.09301348 67.03298945 38.33087181 78.43198881 43.57119751 89.82989502 C48.74757724 101.0891812 53.91201545 112.35384428 59.0625 123.625 C59.55533981 124.70349213 59.55533981 124.70349213 60.05813599 125.80377197 C62.70261258 131.59113505 65.34614061 137.37893127 67.98962402 143.16674805 C70.30513417 148.23637034 72.62103247 153.30581508 74.9375 158.375 C75.26066193 159.08220184 75.58382385 159.78940369 75.91677856 160.51803589 C83.9176023 178.02437848 91.95742464 195.51280839 100 213 C97.34422666 215.68224658 94.70553188 218.34315019 91.8359375 220.796875 C91.27704834 221.27584229 90.71815918 221.75480957 90.14233398 222.24829102 C89.55911377 222.74385498 88.97589355 223.23941895 88.375 223.75 C87.75890869 224.27585693 87.14281738 224.80171387 86.50805664 225.34350586 C81.98106123 229.19575697 77.39630759 232.97240914 72.78125 236.71875 C69.63616205 239.29842888 66.53520324 241.92631983 63.4375 244.5625 C58.88720681 248.43247486 54.27166922 252.19960089 49.58984375 255.91015625 C45.96869031 258.83220315 42.43045431 261.84821486 38.88671875 264.86328125 C35.45428391 267.78004513 31.99407185 270.65693426 28.5 273.5 C22.25914465 278.57933722 16.12906056 283.78688808 10 289 C7.81984493 286.26546264 6.22486746 283.66336436 4.875 280.4375 C4.54242187 279.67308594 4.20984375 278.90867187 3.8671875 278.12109375 C3.10649641 275.38329114 2.79173455 273.13521221 2.578125 270.32421875 C1.91841007 261.92164486 0.32699555 253.66916619 -1.125 245.375 C-1.44064859 243.55232622 -1.75582461 241.72957055 -2.07055664 239.90673828 C-2.72277535 236.13151534 -3.37700116 232.35664867 -4.03271484 228.58203125 C-5.37463974 220.84896136 -6.69322154 213.11193039 -8.01141357 205.37478638 C-8.44143895 202.85189078 -8.87221417 200.3291243 -9.30322266 197.80639648 C-10.86488203 188.66477561 -12.42145471 179.5223076 -13.97265625 170.37890625 C-17.0441464 152.28100139 -20.12701898 134.18574974 -23.3034668 116.10592651 C-23.74304309 113.60212615 -24.18134845 111.09810703 -24.61914062 108.59399414 C-24.75827881 107.79825485 -24.89741699 107.00251556 -25.04077148 106.18266296 C-25.31246389 104.62872597 -25.58411211 103.07478125 -25.85571289 101.52082825 C-26.46647453 98.03058865 -27.08051602 94.54102127 -27.70507812 91.05322266 C-28.31156767 87.66185984 -28.90710612 84.26876064 -29.5 80.875 C-29.67241211 79.93342041 -29.84482422 78.99184082 -30.02246094 78.02172852 C-30.16973633 77.16635498 -30.31701172 76.31098145 -30.46875 75.4296875 C-30.59701172 74.71022949 -30.72527344 73.99077148 -30.85742188 73.24951172 C-31.20478042 67.76909798 -29.48729938 63.44583595 -27.1484375 58.57421875 C-26.85724533 57.96121414 -26.56605316 57.34820953 -26.26603699 56.71662903 C-25.6367765 55.39354808 -25.0042153 54.07203285 -24.36868286 52.75195312 C-22.66403773 49.21042081 -20.98391115 45.65726305 -19.30078125 42.10546875 C-18.77553108 40.99949844 -18.77553108 40.99949844 -18.2396698 39.8711853 C-14.25194537 31.4575636 -10.40268695 22.98172607 -6.5625 14.5 C-5.89957979 13.03735217 -5.23665669 11.57470565 -4.57373047 10.11206055 C-3.04716359 6.74227204 -1.52284303 3.37147327 0 0 Z " fill="#66615B" transform="translate(2048,16)"/>
<path d="M0 0 C4.16305803 0.59558737 7.90548868 1.54256034 11.85791016 2.97094727 C12.99821686 3.38023468 14.13852356 3.78952209 15.31338501 4.21121216 C16.54285858 4.65842621 17.77233215 5.10564026 19.0390625 5.56640625 C20.346635 6.03794055 21.65436784 6.50903041 22.96224976 6.97970581 C26.46220791 8.24072356 29.95983784 9.50808315 33.45703125 10.77674484 C37.07291418 12.08727972 40.69088713 13.39201965 44.30859375 14.69750977 C52.20971503 17.55012137 60.10761262 20.41158105 68.00440979 23.27613831 C69.92275922 23.9719824 71.84119949 24.66757605 73.75964355 25.36315918 C87.17806099 30.22850185 100.59227379 35.10527049 114 40 C113.42517062 44.74969167 111.99659775 48.69001849 109.96484375 52.9765625 C109.65486954 53.6465477 109.34489532 54.3165329 109.02552795 55.00682068 C108.35434241 56.4559461 107.67994781 57.90358864 107.00268555 59.34988403 C105.16275077 63.27977682 103.34637912 67.22055755 101.52734375 71.16015625 C101.15032318 71.97514084 100.77330261 72.79012543 100.38485718 73.62980652 C97.85646915 79.10645064 95.37824984 84.60314093 92.94140625 90.12109375 C92.44325661 91.24862061 92.44325661 91.24862061 91.93504333 92.39892578 C90.66401942 95.27950186 89.39431222 98.16061611 88.13302612 101.04547119 C80.7760207 117.86882029 72.82348371 134.37509711 65 151 C21.11 151 -22.78 151 -68 151 C-66.12629798 145.37889393 -64.45452519 140.52094311 -61.953125 135.28125 C-61.66553314 134.67416702 -61.37794128 134.06708405 -61.08163452 133.44160461 C-60.46402893 132.13866421 -59.84425602 130.83674924 -59.22247314 129.53579712 C-57.52452577 125.98127595 -55.8449753 122.41806909 -54.1640625 118.85546875 C-53.64282303 117.7519532 -53.64282303 117.7519532 -53.11105347 116.62614441 C-49.54143136 109.05513702 -46.07525101 101.43847423 -42.625 93.8125 C-41.37672481 91.05579796 -40.12798718 88.29930579 -38.87890625 85.54296875 C-38.5647728 84.84969482 -38.25063934 84.1564209 -37.92698669 83.44213867 C-34.16892218 75.15594721 -30.3653795 66.89069305 -26.5625 58.625 C-25.1456661 55.54434772 -23.72903971 52.46360006 -22.3125 49.3828125 C-21.96094345 48.61823227 -21.6093869 47.85365204 -21.24717712 47.06590271 C-17.53403225 38.98889377 -13.82728267 30.90896443 -10.12741089 22.8258667 C-9.42401097 21.28957435 -8.72018204 19.75347834 -8.01589966 18.21759033 C-7.04199656 16.09350361 -6.06962457 13.96872262 -5.09765625 11.84375 C-4.81200806 11.22152557 -4.52635986 10.59930115 -4.23205566 9.95822144 C-2.73075278 6.6710093 -1.31057592 3.36789839 0 0 Z " fill="#117781" transform="translate(1647,891)"/>
<path d="M0 0 C2.12030141 3.18045212 3.66615194 6.46269248 5.23828125 9.9296875 C5.55495255 10.62278519 5.87162384 11.31588287 6.19789124 12.02998352 C7.2388017 14.31043218 8.27576524 16.5926503 9.3125 18.875 C10.04171617 20.47571892 10.77104691 22.07638565 11.50048828 23.67700195 C17.17179525 36.13270027 22.77979575 48.61629364 28.36431885 61.11112976 C32.12363581 69.51835792 35.90694721 77.91480631 39.6875 86.3125 C40.45321685 88.01366716 41.21892319 89.71483906 41.98461914 91.41601562 C44.32285437 96.61077841 46.66139977 101.80540153 49 107 C52.10443847 113.89571101 55.20870846 120.79149778 58.3125 127.6875 C58.69135345 128.5292276 59.07020691 129.3709552 59.46054077 130.2381897 C64.65964604 141.79025666 69.84880127 153.34670738 75.02636719 164.90844727 C78.52062039 172.70831446 82.02272438 180.5046006 85.5378418 188.29508972 C87.49671337 192.6381801 89.4468683 196.9847701 91.37841797 201.34008789 C95.14517007 209.81281575 98.96856955 218.16335512 103.40454102 226.31176758 C112.55909779 245.60427824 110 250.81528891 110 276 C73.7 276 37.4 276 0 276 C0 184.92 0 93.84 0 0 Z " fill="#E3423D" transform="translate(679,766)"/>
<path d="M0 0 C0.62221806 4.14812042 0.77504645 7.86299709 0 12 C-2.23796394 14.99516979 -5.07850731 16.79467601 -8.20214844 18.80664062 C-11.06126481 20.70443542 -13.7850558 22.77965811 -16.53393555 24.83251953 C-18.9908687 26.6648002 -21.46017743 28.47910542 -23.93359375 30.2890625 C-28.79651919 33.84930206 -33.64938977 37.42300807 -38.5 41 C-40.0832842 42.16673335 -41.66661762 43.3333999 -43.25 44.5 C-44.03375 45.0775 -44.8175 45.655 -45.625 46.25 C-54.33333333 52.66666667 -63.04166667 59.08333333 -71.75 65.5 C-72.53487793 66.07838623 -73.31975586 66.65677246 -74.12841797 67.25268555 C-75.70014507 68.41068955 -77.27208269 69.56840788 -78.84423828 70.72583008 C-82.98198411 73.77263752 -87.11516462 76.82539845 -91.2421875 79.88671875 C-92.53092773 80.84094727 -92.53092773 80.84094727 -93.84570312 81.81445312 C-95.48898779 83.03137204 -97.13098988 84.25002548 -98.77148438 85.47070312 C-99.51462891 86.02048828 -100.25777344 86.57027344 -101.0234375 87.13671875 C-101.99676025 87.85927856 -101.99676025 87.85927856 -102.98974609 88.59643555 C-105.26233877 90.18316561 -107.61005911 91.59770438 -110 93 C-114.09590831 79.88332308 -118.07189254 66.77445934 -120.875 53.3125 C-121.16056763 51.95608398 -121.16056763 51.95608398 -121.4519043 50.57226562 C-122.57300425 44.95106136 -123.37052299 39.32002559 -124.06298828 33.63354492 C-124.15383194 32.8968734 -124.2446756 32.16020187 -124.33827209 31.40120697 C-124.56009253 29.60095755 -124.78022038 27.80049971 -125 26 C-99.94634172 20.35362279 -74.84495468 14.95807603 -49.70581055 9.70605469 C-44.80983011 8.68309483 -39.91489161 7.6552342 -35.02017879 6.62622833 C-31.20406181 5.82461773 -27.38736946 5.0257753 -23.57049751 4.22776794 C-21.76136441 3.84912161 -19.95242563 3.46954554 -18.14369011 3.08900452 C-15.65098974 2.56492707 -13.15752564 2.04465252 -10.66381836 1.52539062 C-9.92699829 1.36964569 -9.19017822 1.21390076 -8.43103027 1.05343628 C-5.55867885 0.45877287 -2.94277293 0 0 0 Z " fill="#65615C" transform="translate(1055,761)"/>
<path d="M0 0 C4.98586674 3.09890794 9.12881389 6.70948347 13.375 10.75 C14.03838379 11.37688721 14.70176758 12.00377441 15.38525391 12.6496582 C17.26184714 14.42793176 19.13166495 16.21305881 21 18 C21.804375 18.76183594 22.60875 19.52367188 23.4375 20.30859375 C27.88459933 24.62120419 31.79420468 29.27535465 35.6640625 34.109375 C37.19099992 35.99889622 38.74750119 37.86500138 40.3359375 39.703125 C51.57616478 52.72578314 65.49527653 69.48582958 71 86 C62.90965545 91.62568038 54.42225179 96.56563505 45.9375 101.5625 C43.11247848 103.22911238 40.28850493 104.89749046 37.46484375 106.56640625 C36.79810638 106.9595401 36.13136902 107.35267395 35.44442749 107.75772095 C31.96787308 109.8128726 28.52963164 111.910403 25.12890625 114.08984375 C22 116 22 116 20 116 C15.55822328 91.80538094 11.14006139 67.6023144 7.33032227 43.29907227 C6.45173534 37.72233786 5.50878465 32.16791651 4.4375 26.625 C2.72976414 17.78605947 1.36365272 8.89759219 0 0 Z " fill="#F9B62A" transform="translate(1448,100)"/>
<path d="" fill="#FAB72A" transform="translate(0,0)"/>
</svg>
