<?xml version="1.0" encoding="UTF-8" standalone="no"?>
<!-- Created with Inkscape (http://www.inkscape.org/) -->

<svg
   version="1.1"
   id="svg1"
   width="251.78667"
   height="149.57333"
   viewBox="0 0 251.78667 149.57333"
   xmlns="http://www.w3.org/2000/svg"
   xmlns:svg="http://www.w3.org/2000/svg">
  <defs
     id="defs1" />
  <g
     id="g1">
    <g
       id="group-R5">
      <path
         id="path2"
         d="m 350.246,829.105 c -9.328,28.29 -13.734,58.594 -12.504,89.836 -19.668,-0.339 -38.515,0.52 -56.207,2.61 -1.082,-6.379 -1.976,-12.801 -2.539,-19.332 -2.16,-25.641 -0.183,-50.649 5.301,-74.422 19.41,-0.113 42.551,0.262 65.949,1.308"
         style="fill:#106b8f;fill-opacity:1;fill-rule:nonzero;stroke:none"
         transform="matrix(0.13333333,0,0,-0.13333333,0,149.57333)" />
      <path
         id="path3"
         d="m 407.195,734.914 c -22.394,23.176 -40.011,50.348 -51.879,80.168 -24.707,0 -48.406,0.895 -68.488,2.574 8.473,-30.457 22.844,-58.597 41.875,-83.082 19.149,-0.855 48.223,-0.816 78.492,0.34"
         style="fill:#106b8f;fill-opacity:1;fill-rule:nonzero;stroke:none"
         transform="matrix(0.13333333,0,0,-0.13333333,0,149.57333)" />
      <path
         id="path4"
         d="m 334.984,726.789 c 39.563,-46.73 96.887,-78.418 162.688,-84.016 34.859,-2.988 68.601,1.754 99.617,12.614 -71.437,1.566 -132.16,26.836 -176.91,66.773 -32.547,-0.078 -63.301,1.567 -85.395,4.629"
         style="fill:#106b8f;fill-opacity:1;fill-rule:nonzero;stroke:none"
         transform="matrix(0.13333333,0,0,-0.13333333,0,149.57333)" />
      <path
         id="path5"
         d="m 418.281,1099.99 c -68.488,-31.39 -120.293,-94.32 -135.48,-171.763 18.359,0 36.648,1.343 55.797,3.918 5.894,66.246 35.492,124.695 79.683,167.845"
         style="fill:#106b8f;fill-opacity:1;fill-rule:nonzero;stroke:none"
         transform="matrix(0.13333333,0,0,-0.13333333,0,149.57333)" />
      <path
         id="path6"
         d="m 499.762,828.023 c -27.324,-6.679 -65.766,-10.601 -105.102,-12.168 14.442,-29.449 34.188,-55.984 58.074,-78.3 23.364,1.902 44.711,4.55 59.528,8.172 143.73,35.121 245.773,131.078 227.894,214.308 -2.5,11.719 -7.426,22.469 -14.144,32.32 C 699.551,923.086 615.574,856.316 499.762,828.023"
         style="fill:#106b8f;fill-opacity:1;fill-rule:nonzero;stroke:none"
         transform="matrix(0.13333333,0,0,-0.13333333,0,149.57333)" />
      <path
         id="path7"
         d="m 554.281,734.215 c -22.543,-5.524 -53.148,-8.996 -85.285,-10.75 39.902,-31.727 89.277,-52.442 143.883,-57.106 3.172,-0.3 6.305,-0.449 9.441,-0.597 73.75,35.679 127.309,108.164 134.774,195.683 0.261,3.063 0.41,6.121 0.558,9.184 -30.937,-58.375 -104.8,-112.305 -203.371,-136.414"
         style="fill:#106b8f;fill-opacity:1;fill-rule:nonzero;stroke:none"
         transform="matrix(0.13333333,0,0,-0.13333333,0,149.57333)" />
      <path
         id="path8"
         d="m 622.289,1097.93 c -25.605,12.35 -53.82,20.37 -83.867,22.95 -38.442,3.28 -75.539,-2.76 -109.133,-16.16 -33.812,-40.68 -56.019,-91.67 -60.871,-148.357 -0.523,-6.57 -0.785,-13.062 -0.859,-19.558 7.129,1.304 14.332,2.726 21.832,4.293 127.718,27.132 223.304,93.572 232.898,156.832"
         style="fill:#106b8f;fill-opacity:1;fill-rule:nonzero;stroke:none"
         transform="matrix(0.13333333,0,0,-0.13333333,0,149.57333)" />
      <path
         id="path9"
         d="m 437.883,930.512 c -23.887,-5.078 -47.363,-8.403 -70.059,-10.192 1.531,-31.203 8.438,-61.211 19.895,-88.98 26.351,2.055 50.5,5.004 66.996,9.035 135.703,33.141 236.664,116.895 245.695,197.325 -12.539,14.63 -26.797,27.8 -42.547,39.12 -16.683,-59.87 -100.66,-120.968 -219.98,-146.308"
         style="fill:#106b8f;fill-opacity:1;fill-rule:nonzero;stroke:none"
         transform="matrix(0.13333333,0,0,-0.13333333,0,149.57333)" />
      <path
         id="path10"
         d="m 862.102,1013.4 h 69.156 V 755.949 H 862.102 V 1013.4"
         style="fill:#106b8f;fill-opacity:1;fill-rule:nonzero;stroke:none"
         transform="matrix(0.13333333,0,0,-0.13333333,0,149.57333)" />
      <path
         id="path11"
         d="M 1009.85,1013.41 H 1247 v -50.387 h -168.44 v -52.214 h 148.21 v -50.387 h -148.21 v -54.078 h 170.67 v -50.387 h -239.38 v 257.453"
         style="fill:#106b8f;fill-opacity:1;fill-rule:nonzero;stroke:none"
         transform="matrix(0.13333333,0,0,-0.13333333,0,149.57333)" />
      <path
         id="path12"
         d="m 1484.47,863.723 -41.76,83.488 -41.76,-83.488 z m -72.74,151.527 h 63.75 l 134.73,-259.281 h -72.29 l -28.74,57.738 h -132.94 l -28.74,-57.738 h -70.54 l 134.77,259.281"
         style="fill:#106b8f;fill-opacity:1;fill-rule:nonzero;stroke:none"
         transform="matrix(0.13333333,0,0,-0.13333333,0,149.57333)" />
      <path
         id="path13"
         d="M 0,470.129 H 340.012 V 385.781 H 216.43 V 12.4219 H 122.926 V 385.781 H 0 v 84.348"
         style="fill:#106b8f;fill-opacity:1;fill-rule:nonzero;stroke:none"
         transform="matrix(0.13333333,0,0,-0.13333333,0,149.57333)" />
      <path
         id="path14"
         d="M 494.316,470.129 V 12.4219 H 399.508 V 470.129 h 94.808"
         style="fill:#106b8f;fill-opacity:1;fill-rule:nonzero;stroke:none"
         transform="matrix(0.13333333,0,0,-0.13333333,0,149.57333)" />
      <path
         id="path15"
         d="M 670.859,12.4219 H 573.43 l 64.761,457.7071 h 18.075 l 176.746,-272.66 176.748,272.66 h 18.08 L 1092.6,12.4219 H 995.172 L 965.75,269.391 833.012,54.9219 700.277,269.391 670.859,12.4219"
         style="fill:#106b8f;fill-opacity:1;fill-rule:nonzero;stroke:none"
         transform="matrix(0.13333333,0,0,-0.13333333,0,149.57333)" />
      <path
         id="path16"
         d="m 1243.97,121.621 c 11.55,-12.652 24.29,-22.4608 38.25,-29.4296 13.95,-6.9726 28.99,-10.4609 45.12,-10.4609 18.74,0 34,4.789 45.77,14.3789 11.77,9.5896 17.65,22.6716 17.65,39.2386 0,14.382 -3.59,25.933 -10.79,34.656 -7.18,8.711 -17.87,16.449 -32.03,23.207 -14.17,6.754 -31.5,14.062 -51.98,21.906 -10.91,3.93 -23.44,9.258 -37.6,16.02 -14.17,6.754 -27.58,15.472 -40.22,26.16 -12.64,10.676 -23.11,23.75 -31.38,39.226 -8.29,15.473 -12.43,34.106 -12.43,55.911 0,26.152 6.65,48.714 19.95,67.671 13.29,18.965 31.38,33.563 54.27,43.809 22.88,10.242 48.49,15.367 76.83,15.367 29.2,0 54.37,-4.902 75.52,-14.711 21.14,-9.808 38.79,-22.23 52.96,-37.269 14.16,-15.039 25.18,-30.629 33.02,-46.75 l -73.23,-40.543 c -6.11,10.887 -13.41,20.808 -21.9,29.754 -8.5,8.926 -18.21,16.121 -29.1,21.578 -10.9,5.445 -23.33,8.172 -37.27,8.172 -18.31,0 -32.04,-4.25 -41.2,-12.754 -9.15,-8.5 -13.72,-18.418 -13.72,-29.75 0,-11.344 3.69,-21.25 11.11,-29.746 7.4,-8.504 18.73,-16.574 34,-24.196 15.26,-7.628 34.43,-15.367 57.54,-23.214 14.81,-5.231 29.1,-11.77 42.83,-19.614 13.73,-7.851 26.16,-17.332 37.27,-28.445 11.12,-11.117 19.83,-24.191 26.16,-39.227 6.31,-15.046 9.48,-32.367 9.48,-51.988 0,-22.226 -4.37,-42.078 -13.09,-59.4999 -8.72,-17.4375 -20.7,-32.1562 -35.96,-44.1367 C 1424.54,24.9492 1407.44,15.7891 1388.48,9.48047 1369.51,3.16016 1349.57,0 1328.65,0 c -27.9,0 -53.94,5.33984 -78.14,16.0195 -24.19,10.6797 -45.23,25.1719 -63.1,43.4805 -17.87,18.3086 -31.82,38.1406 -41.84,59.5 l 66.69,47.078 c 9.58,-16.996 20.16,-31.82 31.71,-44.457"
         style="fill:#106b8f;fill-opacity:1;fill-rule:nonzero;stroke:none"
         transform="matrix(0.13333333,0,0,-0.13333333,0,149.57333)" />
      <path
         id="path17"
         d="m 1643.48,121.621 c 11.55,-12.652 24.29,-22.4608 38.25,-29.4296 13.95,-6.9726 28.98,-10.4609 45.12,-10.4609 18.74,0 34,4.789 45.76,14.3789 11.78,9.5896 17.66,22.6716 17.66,39.2386 0,14.382 -3.59,25.933 -10.79,34.656 -7.19,8.711 -17.88,16.449 -32.04,23.207 -14.17,6.754 -31.5,14.062 -51.98,21.906 -10.9,3.93 -23.43,9.258 -37.59,16.02 -14.17,6.754 -27.58,15.472 -40.22,26.16 -12.65,10.676 -23.11,23.75 -31.38,39.226 -8.29,15.473 -12.43,34.106 -12.43,55.911 0,26.152 6.65,48.714 19.95,67.671 13.28,18.965 31.38,33.563 54.27,43.809 22.88,10.242 48.48,15.367 76.82,15.367 29.2,0 54.38,-4.902 75.53,-14.711 21.14,-9.808 38.79,-22.23 52.96,-37.269 14.16,-15.039 25.18,-30.629 33.02,-46.75 l -73.23,-40.543 c -6.12,10.887 -13.41,20.808 -21.91,29.754 -8.49,8.926 -18.2,16.121 -29.1,21.578 -10.89,5.445 -23.32,8.172 -37.27,8.172 -18.3,0 -32.04,-4.25 -41.19,-12.754 -9.15,-8.5 -13.73,-18.418 -13.73,-29.75 0,-11.344 3.7,-21.25 11.11,-29.746 7.41,-8.504 18.74,-16.574 34.01,-24.196 15.25,-7.628 34.43,-15.367 57.53,-23.214 14.82,-5.231 29.1,-11.77 42.84,-19.614 13.73,-7.851 26.15,-17.332 37.27,-28.445 11.12,-11.117 19.83,-24.191 26.15,-39.227 6.32,-15.046 9.48,-32.367 9.48,-51.988 0,-22.226 -4.36,-42.078 -13.08,-59.4999 -8.72,-17.4375 -20.71,-32.1562 -35.96,-44.1367 C 1824.05,24.9492 1806.95,15.7891 1787.99,9.48047 1769.02,3.16016 1749.08,0 1728.16,0 c -27.91,0 -53.95,5.33984 -78.14,16.0195 -24.19,10.6797 -45.23,25.1719 -63.1,43.4805 -17.88,18.3086 -31.83,38.1406 -41.85,59.5 l 66.69,47.078 c 9.59,-16.996 20.17,-31.82 31.72,-44.457"
         style="fill:#106b8f;fill-opacity:1;fill-rule:nonzero;stroke:none"
         transform="matrix(0.13333333,0,0,-0.13333333,0,149.57333)" />
    </g>
  </g>
</svg>
